<?xml version="1.0" encoding="UTF-8"?>
<svg width="24px" height="24px" viewBox="0 0 24 24" version="1.1" xmlns="http://www.w3.org/2000/svg" xmlns:xlink="http://www.w3.org/1999/xlink">
    <title>Icon/DonationCart/DuoTone2</title>
    <g id="Icon/DonationCart/DuoTone2" stroke="none" stroke-width="1" fill="none" fill-rule="evenodd">
        <g id="Group">
            <polygon id="Path" points="0 0 24 0 24 24 0 24"></polygon>
            <path d="M7.99498747,19 C6.89223058,19 6,19.9 6,21 C6,22.1 6.89223058,23 7.99498747,23 C9.09774436,23 10,22.1 10,21 C10,19.9 9.09774436,19 7.99498747,19 Z M18.9949875,19 C17.8922306,19 17,19.9 17,21 C17,22.1 17.8922306,23 18.9949875,23 C20.0977444,23 21,22.1 21,21 C21,19.9 20.0977444,19 18.9949875,19 Z M8.74801587,13.7333333 L16.8779762,13.7333333 C17.6964286,13.7333333 18.4166667,13.296 18.7876984,12.6346667 L23,5.15733333 L21.1011905,4.13333333 L16.8779762,11.6 L9.2172619,11.6 L4.56845238,2 L1,2 L1,4.13333333 L3.18253968,4.13333333 L7.11111111,12.2293333 L5.63789683,14.832 C4.84126984,16.2613333 5.88888889,18 7.54761905,18 L20.6428571,18 L20.6428571,15.8666667 L7.54761905,15.8666667 L8.74801587,13.7333333 Z" id="Shape" fill="#828282" fill-rule="nonzero"></path>
            <path d="M11.52,1 C10.2685714,1 9,2.01926198 9,3.96915446 C9,6.02429681 11.2857143,7.60858445 13.4114286,8.954675 C13.5089866,9.01510833 13.6338705,9.01510833 13.7314286,8.954675 C15.8571429,7.60858445 18.1428571,6.02429681 18.1428571,3.96915446 C18.1428571,2.01926198 16.8742857,1 15.6228571,1 C14.8627248,1.00254322 14.1494558,1.35649863 13.7028571,1.95278837 L13.5714286,2.11897239 L13.44,1.95278837 C12.9934013,1.35649863 12.2801324,1.00254322 11.52,1" id="Path" fill="#FF6B02" fill-rule="nonzero"></path>
        </g>
    </g>
</svg>