<svg xmlns="http://www.w3.org/2000/svg" width="24" height="24" viewBox="0 0 24 24">
    <g fill="none" fill-rule="evenodd">
        <g fill-rule="nonzero">
            <g>
                <g>
                    <path fill="#000" d="M21.788 0H1.898L1.69.004c-.15.004-.302.013-.45.04C1.09.07.95.113.813.183.679.253.555.342.449.45.342.556.252.679.184.813c-.07.137-.114.277-.14.428-.028.148-.037.3-.04.45L0 1.898v11.525c0 .069.002.138.003.206.004.15.013.302.04.45.027.151.071.291.141.428.068.135.158.258.265.364.106.107.23.197.364.265.137.07.277.114.428.141.148.027.3.036.45.04l.207.003h20.135l.207-.003c.15-.004.301-.013.45-.04.15-.027.29-.071.428-.141.134-.068.257-.158.364-.265.107-.106.196-.23.265-.364.07-.137.114-.277.14-.428.027-.148.036-.3.04-.45.002-.068.003-.137.003-.206V2.143v-.245c0-.07-.001-.138-.003-.207-.004-.15-.013-.302-.04-.45-.026-.15-.07-.291-.14-.428-.069-.134-.158-.257-.265-.364-.107-.107-.23-.196-.364-.265-.137-.07-.278-.114-.428-.14-.149-.027-.3-.036-.45-.04L22.033 0h-.245z" transform="translate(-495.000000, -809.000000) translate(495.000000, 809.000000) translate(0.000000, 4.000000)"/>
                    <path fill="#FFF" d="M21.788.51l.241.001c.066 0 .131.001.197.003.115.003.249.01.373.032.109.02.2.049.287.093.087.044.166.102.235.17.069.07.126.15.17.236.045.087.074.178.094.287.022.123.028.258.032.373l.002.197.001.241V13.42l-.003.196c-.004.115-.01.249-.032.374-.02.108-.049.198-.094.285-.044.087-.101.166-.17.235-.07.07-.148.127-.236.171-.086.044-.177.074-.285.094-.127.022-.267.028-.372.031-.066.002-.132.003-.199.003H1.9c-.066 0-.132-.001-.195-.003-.108-.003-.247-.009-.374-.031-.108-.02-.2-.05-.287-.094-.086-.044-.165-.101-.234-.17-.07-.07-.127-.149-.17-.236-.045-.087-.075-.178-.094-.287-.023-.124-.029-.258-.032-.372L.51 13.42V1.9l.003-.196c.003-.115.01-.248.032-.374.02-.108.049-.2.093-.287C.683.958.741.88.81.81.88.74.959.684 1.046.64c.087-.045.178-.075.286-.094.125-.023.259-.029.374-.032.065-.002.13-.002.196-.003h19.887" transform="translate(-495.000000, -809.000000) translate(495.000000, 809.000000) translate(0.000000, 4.000000)"/>
                    <g fill="#000">
                        <g>
                            <path d="M3.352.96c.205-.256.344-.6.307-.952-.3.015-.665.198-.877.454-.19.22-.36.579-.315.915.337.03.673-.168.885-.417M3.656 1.443c-.49-.029-.905.278-1.139.278-.233 0-.59-.263-.978-.256-.503.007-.97.292-1.225.745-.526.905-.14 2.249.372 2.986.248.365.547.767.941.752.372-.014.518-.24.97-.24.453 0 .584.24.978.233.41-.007.665-.365.913-.73.284-.416.4-.818.408-.84-.007-.007-.788-.307-.795-1.205-.007-.752.613-1.11.642-1.132-.35-.518-.898-.576-1.087-.59" transform="translate(-495.000000, -809.000000) translate(495.000000, 809.000000) translate(0.000000, 4.000000) translate(3.180723, 4.192771)"/>
                        </g>
                        <g>
                            <path d="M2.13.136c1.063 0 1.803.733 1.803 1.8 0 1.07-.755 1.806-1.83 1.806H.928v1.872h-.85V.136H2.13zM.927 3.03h.975c.74 0 1.162-.399 1.162-1.09 0-.69-.421-1.085-1.158-1.085h-.98v2.175zM4.155 4.479c0-.699.535-1.128 1.484-1.18l1.093-.065v-.308c0-.444-.3-.71-.8-.71-.475 0-.771.228-.843.585h-.774c.045-.721.66-1.253 1.647-1.253.968 0 1.587.513 1.587 1.314v2.752h-.786v-.657h-.02c-.23.444-.735.725-1.26.725-.781 0-1.328-.486-1.328-1.203zm2.577-.36v-.316l-.983.06c-.49.035-.766.251-.766.593 0 .35.288.577.728.577.574 0 1.021-.395 1.021-.915zM8.29 7.083v-.665c.061.016.198.016.266.016.38 0 .585-.16.71-.57 0-.007.072-.243.072-.246L7.896 1.62h.888l1.01 3.249h.015l1.01-3.25h.865l-1.496 4.202c-.341.968-.736 1.28-1.564 1.28-.068 0-.273-.008-.334-.02z" transform="translate(-495.000000, -809.000000) translate(495.000000, 809.000000) translate(0.000000, 4.000000) translate(3.180723, 4.192771) translate(5.783133, 0.289157)"/>
                        </g>
                    </g>
                </g>
            </g>
        </g>
    </g>
</svg>
