<svg xmlns="http://www.w3.org/2000/svg" width="24" height="24" viewBox="0 0 24 24">
    <g fill="none" fill-rule="evenodd">
        <g fill-rule="nonzero">
            <g>
                <g>
                    <g>
                        <path fill="#CC543A" d="M14.613.182H10.466l-.027.003h-.027l-.027.002h-.027L10.33.19h-.027l-.028.003-.027.002c-.009 0-.018.002-.026.003l-.027.003-.027.003-.027.004-.027.004c-.01 0-.018.002-.027.004l-.027.005-.027.005-.028.005-.027.006c-.009 0-.017.003-.027.005l-.027.006L9.9.254 9.872.26l-.027.007-.027.006-.027.008-.027.007-.027.008-.027.009-.027.008-.028.009-.027.01c-.009.002-.017.005-.027.01L9.574.35l-.027.01c-.009.002-.018.007-.027.01-.01.004-.018.008-.028.01l-.027.012-.026.011-.027.012-.027.012-.027.012-.028.013c-.01.004-.018.009-.027.014L9.276.48 9.25.493l-.027.014-.027.013-.027.016c-.01.004-.018.01-.027.013l-.027.016-.028.016c-.009.006-.017.012-.027.017l-.027.017c-.008.005-.017.012-.027.017L8.98.65l-.027.019-.028.018-.027.02-.027.019c-.01.006-.018.014-.027.02l-.027.02L8.79.79c-.01.006-.018.013-.027.021-.01.008-.018.014-.027.023l-.027.023c-.01.007-.018.015-.027.023-.01.009-.019.016-.027.025-.01.007-.018.016-.028.025L8.6.954 8.572.98l-.027.027-.026.028-.027.028-.027.03c-.01.009-.018.019-.027.029l-.027.03-.028.032-.027.033-.027.034-.027.035-.027.036c-.01.013-.019.024-.027.037l-.027.039-.027.04-.027.042c-.01.014-.018.029-.027.043-.01.015-.018.03-.027.046-.01.015-.018.031-.027.047-.01.016-.018.033-.027.05l-.027.051c-.01.018-.018.036-.027.055l-.028.057c-.01.02-.018.041-.027.062-.01.022-.018.044-.027.067l-.027.071-.027.078-.027.087-.027.1c-.01.038-.019.077-.027.116-.038.184-.057.374-.057.568v3.66l.057-.049.027-.022c.01-.006.018-.013.027-.02l.027-.02.027-.021.027-.02.027-.018.027-.019.028-.018.027-.017c.009-.006.017-.012.027-.017l.027-.017.027-.016.027-.016.027-.016.027-.015.027-.014.027-.015.027-.014c.009-.005.017-.01.027-.014l.027-.014.027-.014.027-.013.028-.013.027-.012.027-.013.027-.012.027-.012.026-.01.027-.012.027-.011.027-.01.028-.011.027-.01.027-.011.027-.01.027-.01.027-.01.027-.009.027-.01.027-.008.027-.009.027-.008.028-.009.027-.008.026-.008.027-.008.027-.007.027-.008.028-.008.027-.007.033-.008.027-.006.027-.006.027-.007.027-.006.027-.007.027-.006.028-.006.027-.006.027-.006.026-.005.027-.006.027-.005.028-.005.027-.006.027-.005.027-.004.027-.005.027-.005.028-.004.027-.005.027-.004.027-.004.027-.004.027-.004.027-.003.027-.004.026-.004.027-.003.027-.004.027-.003.027-.004.028-.003.027-.002.027-.004.027-.002.027-.004.027-.002.026-.002.027-.003.027-.002.027-.002.028-.002.027-.002.027-.002.027-.002.027-.002.027-.001.027-.002.027-.001.027-.002h.027l.027-.002.027-.002h.027l.027-.001.027-.002h.027l.027-.001h.027l.027-.001h.027l.028-.001h.027l.027-.001h.027l.027-.001H11.31l.027.001h.055l.028.002h.081l.027.002h.054l.027.002h.027l.027.002h.027l.028.002h.027l.027.002.027.002.027.001.027.002.027.002.026.002.027.002.027.002.027.002.027.002.027.003.027.002.027.002.028.002.027.003.027.003.027.002.027.003.027.003.028.003.027.003.027.003.026.003.027.003.027.004.028.003.027.003.027.003.027.004.027.004.028.003.027.004.027.004.027.004.027.004.027.004.027.004.027.004.027.004.026.004.029.004.027.004.026.005.027.004.026.005.028.004.027.005.027.005.027.005.027.004.027.006.027.004.027.005.027.005.027.005.027.005.027.006.027.005.027.005.027.006.028.005.027.005.027.006.027.005.027.006.027.006.028.005.027.006.027.006.027.006.027.005.027.006.027.006.026.006.027.007.029.006.027.006.027.007.026.006V7.25l-.026-.014-.027-.013-.027-.013-.029-.014-.027-.013-.026-.014-.027-.012-.027-.013-.027-.013-.027-.012-.027-.013-.027-.012-.028-.012-.027-.012-.027-.012-.027-.011-.027-.012-.027-.011-.028-.012-.027-.01-.027-.012-.027-.011-.027-.01-.027-.011-.027-.01-.027-.01-.027-.01-.027-.01-.027-.01-.027-.01-.027-.009-.027-.008-.027-.01-.028-.008-.026-.008-.027-.009-.026-.008-.027-.009-.029-.008-.026-.008-.027-.008-.027-.008-.027-.007-.027-.007-.027-.007-.027-.007-.027-.006-.027-.007-.028-.006-.027-.007-.027-.006-.027-.006-.027-.006-.028-.005-.027-.005-.027-.006-.026-.005-.027-.004-.027-.006-.028-.004-.027-.005-.027-.005-.027-.004-.027-.004-.027-.004-.028-.004-.027-.004-.027-.003-.027-.004-.027-.003-.027-.003-.027-.003-.027-.003-.04.007-.027-.003-.027-.002-.026-.003-.027-.002H11.732l-.028-.003-.027-.001-.027-.001-.027-.002-.027-.001h-.027l-.027-.001-.027-.001h-.19l-.027.001c-.01 0-.018 0-.027.002h-.027l-.027.002-.027.002-.027.002-.027.002c-.01 0-.018.001-.027.003l-.027.002-.027.004-.027.002-.027.004-.027.005-.027.004-.027.004-.027.004-.027.006c-.01.002-.019.002-.027.005l-.028.005-.027.005-.027.007-.027.006-.026.007-.027.007-.028.008-.027.007-.027.008-.027.009-.027.008-.027.01-.027.01-.027.01-.027.01-.027.011-.027.012-.027.012-.027.012-.027.013-.028.013-.026.014-.027.014-.027.015-.027.015c-.01.005-.018.011-.027.017-.01.005-.018.01-.027.017l-.027.017-.027.018-.027.02-.028.019-.027.021-.026.022c-.01.008-.019.014-.027.022l-.027.024-.027.024-.027.026-.027.027-.027.029-.027.03c-.01.009-.018.02-.027.03l-.027.033-.027.035-.028.037-.026.04-.028.042c-.01.013-.018.03-.027.045-.01.016-.018.032-.027.049-.01.017-.018.034-.027.053-.01.018-.018.038-.027.058-.01.02-.019.041-.027.063-.01.023-.019.048-.027.072-.01.027-.019.055-.027.082-.01.032-.02.065-.027.099-.01.042-.02.084-.027.127-.012.065-.021.13-.028.198-.007.078-.011.159-.011.242 0 .083.004.165.011.242.007.068.015.133.028.197.008.043.016.087.027.127.008.035.017.067.027.099.008.028.017.055.027.082.008.024.017.049.027.072l.027.064c.008.018.017.039.027.058.008.016.017.035.027.052l.027.048.027.046c.01.013.018.028.028.04l.026.04.028.038.027.035.027.033.027.031.027.03.027.03.027.026.027.026.027.024.027.023c.008.01.017.014.027.023l.026.02c.009.009.018.014.027.021l.028.02c.009.007.018.014.027.018l.027.018c.008.006.018.012.027.016.009.004.018.012.027.017.009.004.018.012.027.016.009.003.017.01.027.014.008.006.017.011.027.015.008.004.017.01.027.013.009.006.017.011.026.014.01.005.019.01.028.013l.027.014c.009.004.018.01.027.013l.027.012c.01.005.018.01.027.013l.027.011.027.011.027.01c.01.004.018.008.027.01l.027.01.027.01.027.008.027.009.027.008.028.008.027.006c.009.002.017.006.026.007l.027.006.027.008.027.005c.01.003.018.005.028.006l.027.005c.01.003.018.004.027.005l.027.006c.009 0 .017.002.027.004l.027.003.027.004.027.006.027.002.027.003.027.003.027.003.027.002.027.002.027.002.027.002.027.002.027.001h.027l.027.001h.163l.027-.001h.027l.027-.001.027-.002.027-.002h.027l.027-.002.027-.002h.01l.017-.002.027-.001.026-.004.027-.002.027-.003.027-.003.027-.004.027-.002.027-.003.027-.004.027-.004.027-.004.027-.004.028-.005.027-.005.027-.004.027-.004.027-.004.027-.005.028-.005.027-.004.027-.006.027-.006.027-.007.027-.005.027-.007.027-.005.027-.006.027-.007.027-.005.028-.008.027-.006.027-.007.027-.008.027-.008.027-.007.026-.008.027-.007.027-.009.027-.009.029-.007.027-.008.026-.01.027-.009.027-.008.027-.01.027-.01.027-.008.027-.01.027-.01.027-.01.027-.01.027-.01.027-.01.027-.011.027-.012.027-.01.027-.011.027-.012.026-.01.029-.013.027-.013.027-.01.027-.013.027-.012.026-.013.029-.012.027-.013.027-.013.027-.014.026-.013.027-.013.027-.013.027-.014.027-.013.029-.013.026-.014.027-.014.027-.013v1.182l-.027.007-.027.007-.026.006-.029.007-.027.006-.027.007-.027.006-.027.006-.026.007-.027.006-.037.022-.026.006-.027.005-.027.006-.027.007-.027.005-.029.006-.026.005-.027.007-.027.005-.027.005-.027.004-.027.006-.027.005-.027.006-.027.005-.027.006-.027.004-.027.005-.027.005-.027.004-.027.006-.027.004-.028.005-.027.004-.027.006-.027.004-.027.002-.027.005-.027.004-.026.004-.027.006-.027.004-.029.004-.027.004-.026.005-.027.01-.027.004-.027.004-.027.004-.028.004-.027.003-.027.004-.027.003-.027.003-.027.004-.027.003-.027.003-.027.004-.028.003-.027.002-.026.003-.027.003-.028.003-.027.002-.027.003-.027.003h-.026l-.027.002-.027.003-.027.002h-.027l-.027.002-.027.001-.027.003-.027.001-.027.003-.027.001-.028.001-.027.002h-.054l-.027.002h-.027l-.027.002h-.026l-.028.003h-.027l-.028.001h-.027l-.027.001h-.027l-.027.002h-.108l-.027.001H10.923l-.027-.001h-.054l-.027-.002h-.081l-.027-.002-.027-.002-.028-.001h-.027l-.027-.002-.027-.001-.026-.001-.025.004-.027-.002-.027-.001-.027-.001-.028-.003-.027-.001-.027-.003-.027-.001-.027-.003-.027-.001-.027-.003-.027-.002-.027-.002-.027-.002-.027-.003-.027-.004-.027-.003-.027-.002-.027-.003-.027-.004-.027-.003-.027-.004-.027-.003-.027-.004-.027-.004-.027-.004-.027-.001-.027-.006-.027-.004-.027-.004-.027-.005-.027-.004-.027-.005-.027-.005-.028-.005-.027-.004-.027-.004-.027-.006-.027-.005-.027-.005-.027-.006-.027-.005-.027-.006-.027-.007-.028-.003-.026-.006-.027-.006-.027-.007-.027-.007-.028-.007-.027-.007-.027-.007-.027-.008-.027-.007-.027-.009-.027-.007-.027-.008-.027-.008-.027-.01-.028-.006-.027-.008c-.008-.004-.017-.006-.027-.009l-.026-.01-.02-.014-.027-.009-.027-.01-.027-.01-.027-.01c-.01-.005-.018-.009-.027-.011l-.027-.011-.027-.012-.027-.01-.027-.013-.027-.013-.027-.012-.027-.011-.027-.014-.027-.012-.027-.014-.028-.013-.027-.013-.027-.014-.027-.013-.027-.014-.027-.014-.027-.014-.027-.014-.027-.012-.027-.015c-.009-.005-.017-.012-.027-.014l-.027-.016c-.009-.006-.017-.013-.027-.017l-.027-.016-.027-.018c-.01-.005-.018-.013-.028-.017l-.027-.017c-.009-.007-.018-.014-.027-.019-.009-.007-.018-.014-.027-.019l-.026-.02c-.01-.005-.018-.013-.027-.02-.01-.006-.018-.013-.027-.02l-.027-.02-.058-.05v6.454H11.907c.009 0 .018 0 .027-.002h.054l.027-.002.026-.002h.027l.027-.004.028-.002.027-.003.028-.004.026-.002.027-.004.027-.004.028-.004.027-.004.027-.005.027-.005.027-.005.027-.006c.01-.001.017-.004.027-.007l.027-.006.027-.007c.01-.001.018-.004.027-.006l.027-.007.028-.008.027-.007.027-.009.027-.008c.01-.002.018-.005.027-.009l.027-.008.027-.009.027-.011.027-.01c.009-.002.018-.006.027-.01l.028-.01.027-.011.027-.012.027-.012.027-.01.027-.014.027-.013.027-.012c.009-.006.017-.01.027-.014.009-.004.017-.01.027-.014l.026-.014c.01-.004.018-.01.027-.014l.027-.013.027-.014.027-.014c.01-.006.018-.012.027-.014.01-.006.018-.013.027-.016l.027-.015.027-.017c.01-.005.018-.012.027-.016.01-.007.018-.013.028-.017.01-.006.018-.013.027-.017.01-.005.017-.013.027-.02.01-.005.018-.012.027-.017l.027-.02.027-.018.028-.02c.01-.007.017-.014.027-.02l.027-.021.027-.022c.01-.009.018-.014.027-.023l.027-.022.027-.024.027-.024c.01-.008.018-.015.027-.025l.028-.025.027-.027.027-.027.027-.027.027-.028.027-.03.027-.03.027-.03.027-.033.026-.034.027-.034.027-.035.027-.037.027-.038.028-.04c.01-.014.017-.027.027-.04.008-.014.017-.027.027-.041.01-.014.018-.029.027-.044l.026-.044.027-.048.028-.05c.01-.016.018-.036.027-.053.01-.017.018-.037.027-.055.01-.018.018-.04.027-.058l.027-.064c.01-.022.018-.044.027-.068.01-.024.018-.049.027-.073l.027-.08.027-.09.027-.105c.011-.04.019-.083.028-.124.01-.056.019-.11.027-.168.014-.118.023-.237.023-.358V.182h-.05z" transform="translate(-573.000000, -408.000000) translate(501.000000, 408.000000) translate(72.000000, 0.000000) translate(1.000000, 3.000000)"/>
                        <path fill="#006284" d="M6.894.182H2.733c-.01 0-.018.002-.027.003H2.68l-.027.002h-.027c-.009 0-.017 0-.027.003h-.027l-.027.004-.028.002-.027.002-.027.004-.027.002-.027.006-.027.003c-.009 0-.017.003-.026.003l-.027.005c-.01 0-.019.004-.028.006l-.027.005c-.008.001-.018.001-.027.005L2.22.242l-.027.005-.028.008c-.009 0-.018.005-.027.006L2.11.267l-.027.008-.027.006-.027.008-.027.009c-.009.002-.018.004-.027.008l-.027.009-.027.009-.028.009c-.009.003-.018.005-.027.01L1.84.352l-.027.01-.02.01-.028.01-.027.012-.027.011-.027.012-.028.011c-.009.006-.017.009-.027.014l-.027.013-.026.013-.027.014c-.01.005-.019.008-.027.014l-.028.015-.027.013L1.44.54c-.01.005-.018.01-.027.013-.009.006-.018.013-.027.017l-.027.016-.027.015c-.01.006-.018.013-.027.017-.009.006-.018.013-.027.017-.01.005-.018.013-.027.018l-.027.019c-.01.006-.018.011-.028.02l-.027.017-.027.021-.026.02-.028.02-.027.021c-.01.009-.018.014-.027.023l-.027.022L.98.86.952.882.925.906.897.932.87.955.843.983C.833.992.825 1 .816 1.011l-.027.027-.027.027-.027.03-.027.03-.028.03c-.01.01-.018.021-.027.032l-.027.032-.027.035-.027.034c-.009.012-.017.024-.027.035l-.027.038-.027.038-.027.04-.028.042c-.009.015-.017.03-.027.043l-.027.046c-.009.016-.018.03-.026.047-.01.017-.019.032-.027.049l-.027.051-.028.056c-.01.018-.018.037-.027.057l-.027.06-.027.068c-.01.023-.018.048-.027.07l-.027.08c-.01.028-.018.058-.027.088-.01.032-.02.065-.027.099-.01.039-.02.076-.027.116-.038.184-.058.374-.058.57v6.9l.058.029.027.013.027.013.027.014.027.012.027.013.027.014.027.011.027.014.028.01.027.014.027.012.026.012.027.013.027.01.028.012.027.012.027.012.027.01.027.012.027.011.027.01.027.012.027.01.028.01.027.01.027.01.027.011.027.01.027.01.027.01.027.009.028.008.027.01.027.01.027.009.027.008.027.007.027.008.028.01.026.007.027.008.027.008.028.007.027.007.027.007.027.007.027.008.027.007.027.007.027.007.027.006.027.006.027.006.028.005.027.006.027.006.026.005.027.007.027.004.028.005.027.004.027.005.027.005.027.005.027.004.027.002.027.004.027.005.028.003.027.003.027.003.027.003.027.003.026.002.028.002.027.002.027.002.027.002h.027l.027.002.028.002.027.001h.027l.028.001h.188l.028-.002.027-.001.027-.003h.027l.027-.004.027-.002.027-.004c.01 0 .018-.001.027-.004l.027-.004.027-.005.027-.006c.009 0 .018-.003.027-.005l.027-.005.027-.007.027-.007.027-.007.027-.008.028-.01.027-.008.027-.01.027-.01.026-.01.028-.013.027-.013.027-.013.027-.013.027-.014.027-.015.027-.014.027-.015c.01-.005.018-.012.027-.016l.027-.018.027-.019c.01-.006.018-.014.027-.02l.027-.02.027-.022.028-.025.027-.025.026-.029.028-.028.027-.03.028-.036.027-.037c.009-.012.018-.024.027-.039L3.74 9.9c.01-.014.019-.03.027-.046.01-.016.019-.036.027-.052.01-.018.019-.04.027-.06.01-.034.019-.055.027-.08.01-.027.02-.054.027-.082.01-.036.02-.07.027-.108.013-.059.022-.12.028-.182.004-.048.006-.098.006-.15V5.896H6.34V9.14c0 .094-.004.187-.013.278-.007.065-.016.13-.027.193-.008.041-.016.084-.027.125-.008.035-.017.069-.027.1l-.027.084c-.008.024-.017.047-.027.071-.008.022-.017.043-.027.065l-.027.06-.028.053-.027.05-.027.044-.027.044c-.008.013-.017.027-.027.04-.009.014-.017.027-.027.04l-.027.037-.026.034-.027.032-.027.032-.027.03-.028.028c-.008.01-.018.018-.027.027-.008.01-.017.018-.027.027-.008.01-.018.016-.027.025l-.027.025-.027.023-.027.022-.027.02c-.009.01-.018.014-.027.02-.009.01-.018.015-.027.02l-.027.02c-.01.006-.018.013-.028.018-.008.007-.017.013-.027.017-.009.007-.017.013-.026.018-.009.006-.018.012-.027.016-.01.006-.018.012-.027.015-.01.007-.018.013-.027.016l-.028.016-.027.015c-.008.004-.018.01-.027.013-.009.006-.018.01-.027.014-.009.005-.017.01-.027.014l-.027.014-.027.011c-.009.006-.018.01-.027.014l-.027.013-.028.014-.027.013-.027.012-.028.012-.027.013-.027.01c-.009.005-.017.009-.027.011l-.027.01-.027.011-.027.01-.028.01-.027.008-.027.009-.027.009-.027.007-.027.008-.027.01-.027.009-.027.006-.028.008-.027.007-.026.008-.027.008-.027.007-.027.006-.028.008-.027.005-.027.006-.027.004-.027.006-.027.006-.027.005-.026.006-.027.006c-.01 0-.018.002-.027.004-.01 0-.019.002-.028.005l-.027.004-.027.005-.027.004-.027.005-.027-.014-.027.004-.027.005-.027.001-.027.004-.028.002-.027.003-.027.004-.027.003-.026.003-.027.004-.027.002-.027.003-.027.003-.027.001-.028.003-.027.003-.027.001-.027.001-.027.002-.028.002-.027.002-.023.004h-.027l-.027.002-.027.001h-.027l-.027.001-.028.001-.027.002-.027.002H3.19l-.027.001h-.026l-.028.001h-.027l-.027.002H2.68l-.027-.002h-.136l-.027-.002h-.027l-.027-.002H2.38l-.027-.002-.027-.002h-.028l-.023-.004-.027-.001-.028-.002-.027-.002-.027-.001-.027-.003-.027-.001-.027-.001-.028-.003-.027-.001-.027-.002h-.027l-.027-.003-.027-.002-.027-.002-.027-.002-.027-.002-.027-.003-.024-.004-.027-.003-.027-.002-.027-.003-.027-.002-.028-.003-.027-.004-.027-.003-.026-.002-.027-.003-.027-.003-.028-.003-.027-.003-.027-.003-.027-.002-.027-.004-.027-.004-.027-.004-.027-.002-.027-.004-.027-.004-.027-.004-.028-.003-.027-.004-.027-.005-.026-.002-.028-.004-.027-.005-.027-.004-.027-.004-.027-.004-.027-.004-.027-.004-.028-.004-.027-.006-.027-.004-.027-.005-.027-.004-.027-.004-.027-.006-.027-.004-.028-.005-.027-.006-.027-.004-.027-.005-.027-.005-.027-.005-.027-.006-.027-.005-.027-.006-.028-.006-.027-.006-.027-.006-.026-.005-.027-.005-.027-.007-.028-.006-.027-.005-.027-.007-.027-.007-.027-.007-.027-.007-.027-.007-.027-.006-.027-.007C.02 11.064 0 11.058 0 11.058v5.891H4.161l.028-.001h.027l.027-.002h.026l.027-.002c.01-.002.018-.002.027-.002.01 0 .018 0 .027-.002l.027-.003.027-.002.027-.004.028-.003.027-.004.027-.003c.008 0 .017-.002.027-.005l.026-.004.027-.005.028-.005c.009 0 .018-.004.027-.006l.027-.005c.01-.001.018-.004.027-.006l.027-.006.027-.008c.01 0 .018-.003.027-.006.009-.001.018-.004.027-.007l.027-.008.028-.007.027-.008.027-.008c.009-.003.018-.005.027-.01l.027-.007L5 16.8l.027-.01.027-.01.028-.01.027-.012.027-.009.027-.012.027-.013.027-.012.027-.011.028-.014.027-.012c.009-.006.017-.01.026-.014.01-.004.018-.009.027-.014l.028-.013.027-.014.027-.014.027-.015c.01-.005.018-.01.027-.013.009-.007.018-.012.027-.015l.027-.016.027-.016.027-.016c.01-.007.018-.012.027-.015.01-.008.018-.014.027-.018l.028-.017.027-.019c.009-.006.017-.012.027-.017.008-.007.017-.014.027-.02l.026-.019.027-.02.028-.02.027-.021.027-.023.027-.021.027-.023c.009-.008.018-.015.027-.025l.027-.023.027-.026.027-.025.027-.026.026-.027c.01-.011.019-.017.028-.028l.027-.028.028-.029.027-.03.026-.032c.01-.01.019-.021.027-.033l.027-.033.027-.034.027-.036.027-.036.027-.039c.01-.013.019-.026.027-.04l.027-.04c.01-.014.018-.029.028-.042.009-.014.017-.03.027-.043l.027-.044.026-.048c.01-.016.018-.032.027-.05.01-.017.019-.035.027-.053.01-.017.018-.036.027-.055.01-.018.019-.039.027-.058.01-.02.019-.042.027-.063l.028-.068.027-.072.027-.081.027-.091c.01-.035.019-.068.027-.103.01-.04.019-.084.026-.126.011-.055.02-.111.028-.168.015-.118.023-.237.023-.358V.182h-.023z" transform="translate(-573.000000, -408.000000) translate(501.000000, 408.000000) translate(72.000000, 0.000000) translate(1.000000, 3.000000)"/>
                        <path fill="#90B44B" d="M22.377.179h-.047v.003H18.202l-.027.001-.027.001h-.027l-.028.002-.027.002-.027.001-.027.004-.027.003-.028.002-.027.003-.027.003-.027.004-.027.004c-.009 0-.017.002-.028.004l-.027.004-.027.004-.026.005-.027.006-.027.005-.027.006-.027.006-.027.006-.027.007-.027.007-.028.007-.027.008-.027.008-.027.008-.027.008-.028.009-.027.01c-.01.003-.018.005-.027.01l-.027.008-.027.01-.027.01-.028.011-.027.011-.027.012-.027.011-.027.012-.027.013-.027.013-.027.013c-.01.005-.017.01-.027.014-.01.004-.017.009-.026.014l-.029.013-.027.015c-.01.004-.017.01-.027.014l-.027.015-.026.016-.027.016-.027.016-.027.017-.029.018-.027.017-.027.019-.027.019-.027.019c-.01.006-.018.013-.027.02-.01.006-.018.013-.027.02l-.027.02-.027.021-.027.021c-.009.008-.018.014-.027.023l-.027.023c-.009.008-.017.016-.028.024-.01.008-.016.016-.027.024-.009.008-.018.016-.025.025l-.029.025-.027.026c-.009.008-.017.018-.027.026l-.027.028-.026.028-.027.029c-.01.01-.02.02-.027.03l-.029.03-.027.033-.026.032c-.01.01-.018.022-.027.033l-.027.036-.027.035-.027.038c-.01.012-.017.025-.027.038-.01.014-.017.027-.027.04l-.027.042c-.01.014-.018.029-.027.043l-.028.045c-.01.016-.017.032-.027.047l-.028.05-.027.05-.027.055-.027.058c-.01.02-.017.042-.027.062l-.027.066-.027.072c-.01.026-.019.053-.027.079l-.028.087c-.01.032-.017.065-.027.098-.01.039-.019.078-.027.118-.039.184-.058.374-.058.57v2.901H19.48l.026.001h.027l.028.001.026.002.027.001.027.001.028.002.027.001.016.001.01.001.028.001.027.002.027.002.027.002.027.004.026.002.027.003.029.004.027.003.027.003.027.005.026.004.027.006.027.005.027.005c.01.002.019.005.029.006l.026.007.027.007.027.007.027.007.027.009.027.008.027.01.028.008.027.01.027.01.027.011c.01.004.019.007.027.012l.028.011.027.013.027.013.027.014.027.013.027.015.027.016.027.016.027.017.027.018.028.019.027.02.027.021c.01.007.017.015.026.023.01.007.018.015.027.023l.027.025.027.027.027.028.028.03c.01.01.018.022.027.032l.027.035c.01.013.02.025.027.038l.027.042c.01.015.02.03.027.046.01.017.02.034.027.052.011.02.02.04.027.061.011.025.019.049.028.074.01.03.02.063.027.096.013.052.022.107.027.163.004.043.007.089.007.135 0 .044-.003.087-.007.13-.005.055-.014.108-.027.16-.008.032-.016.064-.027.096-.009.025-.017.05-.028.074-.008.02-.016.04-.027.061-.008.019-.017.036-.027.054-.008.016-.017.032-.027.047-.01.015-.017.029-.027.043-.008.014-.017.027-.027.04l-.027.036-.027.033c-.009.01-.017.021-.028.031l-.027.03-.027.027-.027.027-.027.024-.026.024-.027.021-.027.021-.028.02-.027.018-.027.018c-.009.005-.018.01-.027.017l-.027.015-.027.015-.027.014c-.01.004-.017.01-.027.013-.01.006-.017.01-.027.014-.01.005-.017.01-.027.014l-.028.012-.027.012-.027.012-.027.01-.027.01-.028.01c-.01.002-.017.006-.027.009-.01.003-.017.005-.027.01l-.027.007-.027.008-.027.008c-.01.001-.017.004-.027.006l-.026.006-.029.007-.027.006-.027.006-.027.004-.026.005-.025.004v.032l.025.003.027.001.027.003.027.002.027.003.028.004.027.003.027.004.027.005c.01 0 .018.002.027.005l.027.004.027.006.027.005.028.006.027.006.027.007c.01.001.018.004.027.007l.027.007c.009.003.018.004.028.008l.027.008.027.009c.008.002.016.006.027.008l.027.01.027.01.027.01.027.01.027.012.027.011.028.012.027.013.027.014.027.013c.009.004.016.01.027.014l.025.015.028.014.027.016c.01.004.018.011.027.016l.027.017c.01.006.02.013.029.017.009.007.017.014.027.02.009.005.017.013.026.02l.027.019c.01.008.018.014.027.023.01.007.018.014.027.023l.027.023.027.026c.01.01.02.017.028.027l.027.03.027.03c.01.01.018.022.027.032l.027.037c.01.012.019.024.027.037l.027.042c.01.014.018.03.027.045l.028.05.027.061c.01.022.019.045.027.07.01.027.019.057.027.088.012.043.02.09.027.136.008.056.012.116.012.175 0 .062-.004.123-.012.18-.007.048-.015.095-.027.14-.008.031-.016.062-.027.093-.008.024-.016.049-.027.072-.01.02-.016.04-.027.062-.009.017-.017.035-.028.052-.009.017-.016.032-.027.047-.008.014-.016.03-.027.044-.008.013-.016.025-.027.039-.009.013-.016.024-.027.037-.009.012-.016.023-.027.035l-.027.031c-.009.012-.017.02-.027.03-.009.011-.017.018-.028.028l-.027.027c-.009.009-.016.016-.027.024l-.027.025c-.009.008-.017.014-.027.02-.009.01-.017.015-.027.022l-.026.02-.027.021c-.01.007-.018.013-.029.018-.008.007-.016.013-.027.017-.009.006-.016.013-.027.016-.009.006-.017.012-.027.016-.009.006-.017.01-.028.015-.008.006-.016.01-.025.014l-.027.015c-.01.004-.018.01-.027.013l-.027.014c-.01.004-.018.01-.027.013l-.028.013-.027.012-.027.012-.027.012-.027.01c-.01.003-.018.008-.027.01l-.027.01-.027.01-.027.003-.027.008c-.01.003-.018.007-.028.008l-.027.009-.027.006-.027.007-.027.007-.028.005c-.01.002-.017.006-.027.007l-.027.005-.027.004-.027.005-.027.004-.027.004-.027.005-.028.002c-.01.002-.016.003-.027.003-.01.001-.016.003-.027.003h-.027l-.027.002-.027.001-.027.001-.037.004c-.01.002-.017.002-.028.002H15.474v5.698H19.64l.027-.001h.027l.028-.001c.008 0 .018 0 .027-.002h.027l.027-.002.027-.003c.01-.001.019-.001.027-.004l.026-.001.027-.004c.01 0 .018-.001.029-.003l.027-.002.027-.006.027-.004.026-.003.027-.005.027-.005.027-.006.029-.006.026-.006c.01-.001.018-.004.027-.007l.027-.006.027-.007.027-.008c.01-.001.017-.004.027-.007l.027-.008.028-.008.027-.008.027-.008.027-.01.027-.009.028-.01.027-.01.027-.01.027-.012c.01-.002.017-.006.027-.01l.027-.013c.01-.002.017-.007.027-.01l.027-.013.027-.013.027-.013.028-.014.027-.011c.01-.006.017-.011.027-.014.01-.006.017-.01.027-.014l.026-.014.027-.014c.01-.006.018-.01.027-.013l.027-.016c.01-.004.02-.01.028-.015l.027-.014c.01-.005.018-.013.027-.016.01-.005.018-.012.027-.016l.027-.017.027-.018c.01-.005.018-.011.027-.017.01-.005.018-.012.027-.018.01-.006.018-.013.028-.018.009-.006.018-.014.027-.019.01-.006.018-.014.027-.019l.027-.022c.01-.006.018-.013.027-.02l.028-.021.027-.022.027-.022.027-.023.027-.024.027-.025.027-.025.027-.026.027-.026.027-.028.027-.027c.01-.01.017-.019.028-.028.008-.012.016-.02.027-.03l.027-.032.027-.03.027-.033.027-.034.027-.035.027-.037.028-.037c.009-.013.016-.026.027-.039l.027-.04c.009-.014.016-.027.027-.04.009-.014.017-.029.027-.043.009-.015.017-.03.027-.044.009-.015.016-.031.026-.046.01-.016.017-.033.027-.048.01-.016.018-.034.027-.051l.027-.054.027-.056c.01-.02.018-.041.027-.062.01-.02.018-.042.028-.066l.027-.068c.01-.026.018-.05.026-.076.01-.027.02-.057.027-.086.01-.03.019-.063.027-.096.01-.037.019-.073.027-.112.012-.045.019-.094.028-.14.012-.07.02-.14.027-.212.008-.083.012-.165.012-.248V.179h-.012z" transform="translate(-573.000000, -408.000000) translate(501.000000, 408.000000) translate(72.000000, 0.000000) translate(1.000000, 3.000000)"/>
                        <path fill="#90B44B" d="M19.207 9.471c-.008-.032-.014-.061-.027-.092-.008-.02-.016-.042-.027-.063-.01-.017-.016-.035-.027-.052-.01-.013-.016-.028-.027-.042l-.027-.037c-.009-.01-.016-.022-.027-.032l-.027-.03c-.009-.01-.017-.018-.028-.026l-.027-.024c-.009-.006-.017-.014-.027-.02l-.027-.02c-.009-.005-.017-.012-.027-.016-.009-.006-.017-.012-.027-.015-.01-.006-.017-.011-.027-.014-.01-.004-.017-.009-.028-.013l-.027-.012c-.009-.004-.017-.009-.027-.011l-.027-.01-.027-.009-.027-.006-.011-.003-.015-.003c-.008 0-.018-.002-.027-.004-.01 0-.017-.002-.027-.004l-.027-.001c-.01-.002-.017-.003-.027-.003-.01-.001-.019-.001-.027-.003l-.027-.001H16.84v1.478H18.477l.027-.002.027-.003.027-.001.027-.003.027-.004c.01 0 .019-.002.027-.004.005 0 .01-.002.015-.004l.011-.002c.01-.001.017-.004.027-.007l.027-.008c.01-.002.018-.007.027-.01l.027-.01.027-.012.028-.014c.01-.006.017-.01.027-.014l.027-.015c.01-.005.018-.012.027-.017l.027-.019.027-.02.027-.023.028-.027.027-.028.027-.034c.01-.012.018-.024.027-.038.011-.014.018-.028.027-.041.011-.017.018-.034.027-.05.01-.022.02-.042.027-.066.013-.03.02-.06.027-.092.014-.054.019-.112.019-.172 0-.06-.007-.119-.019-.172zM19.021 7.24c-.007-.032-.014-.063-.027-.092-.01-.021-.016-.042-.027-.062-.008-.016-.017-.033-.027-.049-.009-.013-.017-.027-.027-.04l-.027-.035-.027-.03c-.009-.01-.017-.019-.027-.027l-.027-.025c-.009-.008-.017-.015-.028-.021-.008-.007-.017-.014-.027-.02-.009-.007-.017-.013-.027-.018l-.027-.016c-.009-.004-.017-.01-.027-.013-.009-.006-.017-.01-.027-.014l-.026-.011-.027-.01-.027-.01-.029-.007c-.009-.002-.017-.005-.027-.006-.007-.003-.017-.005-.026-.006l-.007-.001-.02-.003-.027-.003-.027-.002-.027-.002-.027-.002H16.841v1.36H16.855v.003H18.345l.027-.002.027-.002c.01 0 .017-.002.027-.003.01 0 .019-.001.027-.003l.02-.002.007-.002.026-.005.027-.006.029-.008.027-.009.027-.01.026-.011c.01-.004.018-.01.027-.014l.027-.013.027-.016c.01-.005.018-.011.027-.017.01-.006.02-.013.027-.02.011-.007.02-.014.028-.022l.027-.024.027-.027.027-.03c.01-.011.018-.023.027-.035.01-.013.018-.027.027-.04.01-.017.02-.033.027-.05.011-.02.02-.04.027-.061.013-.03.02-.06.027-.092.01-.05.016-.103.016-.157 0-.055-.004-.108-.016-.157z" transform="translate(-573.000000, -408.000000) translate(501.000000, 408.000000) translate(72.000000, 0.000000) translate(1.000000, 3.000000)"/>
                    </g>
                </g>
            </g>
        </g>
    </g>
</svg>
