<svg xmlns="http://www.w3.org/2000/svg" width="30" height="30" viewBox="0 0 30 30">
    <defs>
        <filter id="uud4jwbvla">
            <feColorMatrix in="SourceGraphic" values="0 0 0 0 0.956863 0 0 0 0 0.639216 0 0 0 0 0.321569 0 0 0 1.000000 0"/>
        </filter>
        <filter id="494gnx7gfb">
            <feColorMatrix in="SourceGraphic" values="0 0 0 0 0.185773 0 0 0 0 0.185773 0 0 0 0 0.185773 0 0 0 1.000000 0"/>
        </filter>
    </defs>
    <g fill="none" fill-rule="evenodd">
        <g  transform="translate(-315 -10)">
            <g  transform="translate(315 10)">
                <g>
                    <path fill="#f4a352" fill-rule="nonzero" d="M8.827 7.5l5.898-5.899c.367-.366.367-.96 0-1.326-.366-.367-.96-.367-1.326 0L7.5 6.174 1.601.274c-.366-.366-.96-.366-1.326 0-.367.367-.367.961 0 1.327l5.899 5.9-5.9 5.898c-.366.366-.366.96 0 1.326.184.183.424.275.664.275.24 0 .48-.092.663-.275l5.9-5.899 5.898 5.9c.183.182.423.274.663.274.24 0 .48-.092.663-.275.367-.366.367-.96 0-1.326L8.827 7.5z" transform="rotate(-90 15 7.5)"/>
                </g>
            </g>
        </g>
    </g>
</svg>
