<svg xmlns="http://www.w3.org/2000/svg" width="24" height="24" viewBox="0 0 24 24">
    <g fill="none" fill-rule="evenodd">
        <g fill-rule="nonzero">
            <g>
                <g>
                    <g>
                        <path fill="#231F20" d="M4.328 16.704v-1.078c.013-.183-.054-.363-.183-.494-.13-.13-.309-.199-.492-.188-.242-.016-.473.101-.604.305-.118-.198-.336-.315-.567-.305-.201-.01-.392.087-.503.255v-.212h-.373v1.717h.377v-.945c-.017-.119.021-.239.102-.327.082-.088.198-.135.318-.129.248 0 .373.162.373.453v.955h.378v-.952c-.016-.119.022-.238.103-.326.081-.088.197-.136.317-.13.255 0 .377.162.377.453v.955l.377-.007zm5.58-1.717h-.614v-.52h-.377v.52h-.341v.341h.348v.79c0 .4.154.636.596.636.165 0 .327-.045.467-.133l-.108-.32c-.1.06-.214.094-.33.098-.18 0-.248-.115-.248-.288v-.783h.61l-.003-.341zm3.186-.043c-.185-.006-.36.09-.453.251v-.208h-.37v1.717h.374v-.963c0-.284.122-.442.36-.442.08 0 .158.014.233.044l.115-.36c-.086-.03-.176-.046-.266-.046l.007.007zm-4.817.18c-.211-.126-.454-.189-.7-.18-.435 0-.718.208-.718.55 0 .28.208.452.592.506l.18.025c.205.029.302.083.302.18 0 .132-.137.208-.392.208-.205.006-.406-.057-.571-.18l-.18.291c.218.152.479.23.744.223.496 0 .783-.234.783-.56 0-.327-.226-.46-.6-.514l-.18-.025c-.161-.022-.29-.054-.29-.169 0-.115.122-.201.326-.201.19.002.375.053.54.147l.164-.302zm10.005-.18c-.185-.006-.359.09-.452.251v-.208h-.37v1.717h.373v-.963c0-.284.123-.442.36-.442.08 0 .159.014.233.044l.115-.36c-.085-.03-.175-.046-.266-.046l.007.007zm-4.813.898c-.009.244.086.48.26.651.174.171.413.26.656.247.225.011.445-.062.618-.205l-.18-.302c-.129.099-.286.153-.448.155-.287-.023-.507-.263-.507-.55 0-.287.22-.526.507-.55.162.002.32.057.449.155l.18-.302c-.174-.143-.394-.216-.619-.204-.243-.014-.482.075-.656.246-.174.171-.269.408-.26.652v.007zm3.499 0v-.855h-.374v.208c-.128-.165-.329-.259-.538-.251-.496 0-.898.402-.898.898s.402.898.898.898c.21.007.41-.086.538-.252v.209h.374v-.855zm-1.39 0c.016-.282.255-.499.537-.488.283.01.504.244.5.527-.005.282-.234.509-.516.51-.144.002-.282-.056-.381-.16-.099-.105-.15-.246-.14-.39zm-4.508-.898c-.496.007-.892.414-.885.91.007.496.414.893.91.886.259.013.513-.07.713-.234l-.18-.276c-.141.113-.317.177-.499.18-.256.021-.484-.165-.513-.42h1.275v-.145c0-.538-.334-.898-.816-.898l-.005-.003zm0 .334c.113-.003.222.04.304.118.081.078.128.186.13.299h-.897c.013-.24.216-.425.456-.417h.007zm9.359.567v-1.548h-.36v.898c-.128-.165-.329-.259-.538-.251-.496 0-.898.402-.898.898s.402.898.898.898c.21.007.41-.086.538-.252v.209h.36v-.852zm.623.61c.023-.001.046.003.068.012.02.008.04.02.056.036.015.015.028.033.037.054.019.042.019.09 0 .132-.009.02-.022.039-.037.054-.016.016-.035.028-.056.036-.022.01-.045.015-.068.015-.07 0-.133-.041-.162-.105-.018-.042-.018-.09 0-.132.01-.02.022-.039.038-.054.016-.016.035-.028.056-.036.023-.01.048-.014.073-.013h-.005zm0 .303c.018 0 .035-.004.052-.011.015-.007.03-.017.041-.029.047-.05.047-.129 0-.18-.012-.012-.026-.021-.041-.028-.017-.007-.034-.011-.052-.01-.018 0-.036.003-.052.01-.016.006-.031.016-.043.029-.047.05-.047.128 0 .18.012.012.027.021.043.028.018.008.037.011.057.01h-.005zm.01-.214c.017 0 .034.004.047.014.011.01.017.024.016.038 0 .012-.004.024-.012.032-.01.01-.024.016-.038.017l.052.059h-.041l-.049-.06h-.016v.06h-.034v-.158l.076-.002zm-.039.03v.044h.04c.007.002.014.002.021 0 .003-.005.003-.011 0-.017.003-.005.003-.01 0-.016-.007-.002-.014-.002-.021 0l-.04-.01zm-1.975-.729c.016-.281.255-.498.537-.488.282.01.504.245.5.527-.005.283-.234.51-.517.51-.143.003-.281-.056-.38-.16-.1-.104-.15-.245-.14-.389zm-12.613 0v-.858H6.06v.208c-.128-.165-.329-.259-.539-.251-.495 0-.898.402-.898.898s.403.898.898.898c.21.007.41-.086.54-.252v.209h.373v-.852zm-1.39 0c.016-.281.255-.498.537-.488.282.01.504.245.5.527-.005.283-.234.51-.516.51-.145.004-.284-.054-.383-.159-.1-.104-.151-.246-.142-.39h.004z" transform="translate(-537.000000, -408.000000) translate(501.000000, 408.000000) translate(36.000000, 0.000000) translate(1.000000, 3.000000)"/>
                        <g>
                            <path fill="#FF5F00" d="M7.66 1.41H13.317V11.577H7.66z" transform="translate(-537.000000, -408.000000) translate(501.000000, 408.000000) translate(36.000000, 0.000000) translate(1.000000, 3.000000) translate(0.493878, 0.493878)"/>
                            <path fill="#EB001B" d="M8.019 6.494c-.002-1.984.908-3.86 2.47-5.084C7.836-.673 4.03-.37 1.742 2.107c-2.287 2.477-2.287 6.296 0 8.772 2.288 2.477 6.094 2.78 8.745.697-1.56-1.224-2.47-3.098-2.47-5.082z" transform="translate(-537.000000, -408.000000) translate(501.000000, 408.000000) translate(36.000000, 0.000000) translate(1.000000, 3.000000) translate(0.493878, 0.493878)"/>
                            <path fill="#F79E1B" d="M20.95 6.494c0 2.475-1.414 4.733-3.64 5.815-2.227 1.082-4.876.797-6.822-.733 1.56-1.225 2.47-3.1 2.47-5.083 0-1.984-.91-3.857-2.47-5.083C12.434-.12 15.083-.405 17.31.677c2.227 1.082 3.64 3.34 3.64 5.815v.002zM20.464 11.34v-.905h.17v-.187h-.432v.187h.185v.905h.077zm.838 0v-1.092h-.13l-.153.78-.152-.78h-.117v1.092h.095v-.82l.141.71h.098l.142-.71v.828l.076-.008z" transform="translate(-537.000000, -408.000000) translate(501.000000, 408.000000) translate(36.000000, 0.000000) translate(1.000000, 3.000000) translate(0.493878, 0.493878)"/>
                        </g>
                    </g>
                </g>
            </g>
        </g>
    </g>
</svg>
