<svg xmlns="http://www.w3.org/2000/svg" width="48" height="48" viewBox="0 0 24 24">
    <g fill="none" fill-rule="evenodd">
        <g fill-rule="nonzero">
            <g>
                <g transform="translate(-479.000000, -909.000000) translate(479.000000, 909.000000) translate(0.000000, 9.000000)">
                    <rect width="1" height="3.956" x="3.146" y="1.518" fill="#000" rx=".5"/>
                    <path fill="#000" d="M2.48 4.566H.909V1.68c0-.043-.017-.084-.047-.115-.03-.03-.072-.047-.115-.047H.162c-.09 0-.162.072-.162.162v3.632c0 .09.073.162.162.162h2.319c.09 0 .162-.073.162-.162v-.584c0-.09-.073-.162-.162-.162zM11.156 2.426c.089 0 .161-.072.162-.16V1.68c0-.09-.073-.162-.162-.162H8.837c-.09 0-.162.072-.162.162v3.632c0 .09.073.162.162.162h2.319c.09 0 .162-.073.162-.162v-.584c0-.09-.073-.162-.162-.162H9.583V3.95h1.573c.09 0 .162-.073.162-.163v-.583c0-.09-.073-.162-.162-.162H9.583v-.616h1.573zM7.898 1.518h-.584c-.043 0-.084.017-.115.047-.03.03-.047.072-.047.115v2.101l-1.53-2.184c-.042-.056-.11-.086-.18-.08h-.61c-.09 0-.162.073-.162.163v3.632c0 .09.072.162.162.162h.584c.09 0 .162-.073.162-.162V3.117L7.17 5.394l.018.023c.029.033.07.054.113.057h.597c.09 0 .162-.073.162-.162V1.68c0-.043-.017-.084-.047-.115-.03-.03-.072-.047-.115-.047z"/>
                    <rect width="11.145" height="6.991" x="12.842" fill="#08BF5B" rx="1"/>
                    <path fill="#FFF" d="M16.86 2.726c0 .298-.12.583-.333.792-.213.208-.5.322-.798.316h-.484v.907c0 .06-.049.11-.11.11h-.52c-.06 0-.11-.05-.11-.11V1.727c0-.06.05-.109.11-.109h1.114c.298-.005.585.109.798.317.213.209.333.494.334.791zm-.738 0c.005-.108-.033-.213-.108-.292-.074-.078-.177-.123-.285-.123h-.484v.831h.485c.108 0 .21-.046.284-.124.074-.079.113-.184.108-.292zM19.603 2.599v2.194c0 .032-.025.057-.056.057h-.578c-.032 0-.058-.025-.058-.057v-.16c-.152.176-.378.282-.688.282-.605 0-1.102-.531-1.102-1.219 0-.687.498-1.22 1.102-1.22.31 0 .536.107.688.283v-.16c0-.032.026-.058.058-.058h.578c.015 0 .03.007.04.017.01.011.017.026.016.041zm-.692 1.097c0-.346-.23-.564-.551-.564-.32 0-.551.218-.551.564 0 .347.23.563.551.563.32 0 .551-.218.551-.563zM21.909 2.601l-.532 1.34-.55-1.34c-.015-.037-.05-.061-.089-.061h-.59c-.019 0-.037.01-.047.025-.01.016-.013.036-.005.054l.918 2.235-.334.842c-.007.017-.005.037.006.053.01.016.029.025.048.025h.59c.039 0 .074-.024.088-.061l1.229-3.096c.007-.018.004-.038-.006-.053-.01-.016-.029-.026-.047-.026h-.59c-.04 0-.076.026-.09.063z"/>
                </g>
            </g>
        </g>
    </g>
</svg>
