<svg xmlns="http://www.w3.org/2000/svg" width="24" height="24" viewBox="0 0 24 24">
    <g fill="none" fill-rule="evenodd">
        <g fill-rule="nonzero">
            <g>
                <path fill="#FFF" d="M0.121 0.242L23.895 0.242 23.895 23.265 0.121 23.265z" transform="translate(-517.000000, -508.000000) translate(517.000000, 508.000000)"/>
                <path fill="#008061" d="M0 0.065L23.996 0.065 23.996 23.381 0 23.381z" transform="translate(-517.000000, -508.000000) translate(517.000000, 508.000000)"/>
                <path fill="#FFF" d="M14.795 21.847v.933H9.039v-.935H4.684c-.425 0-.772-.445-.772-.993L2.09 2.422c0-.55.425-.995.95-.995h17.6c.521 0 .947.445.947.994l-1.802 18.43c0 .549-.347.994-.772.994l-4.218.002z" transform="translate(-517.000000, -508.000000) translate(517.000000, 508.000000)"/>
                <path fill="#F5821F" d="M5.295 4.126h11.782c-1.16.435-4.691 2.826-5.573 4.433H5.306l-.01-4.433z" transform="translate(-517.000000, -508.000000) translate(517.000000, 508.000000)"/>
                <path fill="#ED1B2D" d="M14.685 16.829c-.168 1.606-.175 3.56-.175 5.614H9.403c0-2.053.086-4.008.254-5.614h5.028z" transform="translate(-517.000000, -508.000000) translate(517.000000, 508.000000)"/>
                <path fill="#008061" d="M6.785 14.509L6.785 15.131 5.968 15.131 5.968 15.754 6.785 15.754 6.785 16.467 4.918 16.467 4.918 13.148 6.785 13.148 6.785 13.887 5.968 13.887 5.968 14.509zM11.126 14.509L11.126 15.131 10.313 15.131 10.313 15.754 11.126 15.754 11.126 16.467 9.263 16.467 9.263 13.148 11.126 13.148 11.126 13.887 10.313 13.887 10.313 14.509zM15.91 14.509L15.91 15.131 15.093 15.131 15.093 15.754 15.91 15.754 15.91 16.467 14.043 16.467 14.043 13.148 15.91 13.148 15.91 13.887 15.093 13.887 15.093 14.509zM8.185 13.148L8.185 15.754 9.002 15.754 9.002 16.467 7.135 16.467 7.135 13.148zM12.633 15.391L12.235 13.148 11.318 13.148 11.84 16.467 13.189 16.467 13.82 13.148 13.041 13.148zM16.353 13.148L17.362 13.148 17.362 16.467 16.353 16.467zM17.362 14.133c.055-.363.57-.266.57-.058v2.392h1.012v-2.813c0-.597-.84-.837-1.575-.311l-.007.79z" transform="translate(-517.000000, -508.000000) translate(517.000000, 508.000000)"/>
                <path fill="#ED1B2D" d="M15.159 12.681c.103-1.27 1.843-3.344 3.528-3.889v-4.9c-4.637 2.074-7.65 5.211-8.302 8.777l4.774.012z" transform="translate(-517.000000, -508.000000) translate(517.000000, 508.000000)"/>
            </g>
        </g>
    </g>
</svg>
