<svg xmlns="http://www.w3.org/2000/svg" width="24" height="24" viewBox="0 0 24 24">
    <g fill="none" fill-rule="evenodd">
        <g>
            <g>
                <g>
                    <path fill="#0079C4" fill-rule="nonzero" d="M0.043 16.056H22.267V24H0.043z" transform="translate(-553.000000, -508.000000) translate(553.000000, 508.000000) translate(1.000000, 0.000000)"/>
                    <path fill="#0079C4" d="M11.837 11.626l-.466-1.186h-.681s.84 2.03.825 2.05c-.005.014-.283.72-.297.739.019.005.681 0 .686-.005.005-.034 1.018-2.784 1.018-2.784h-.653l-.432 1.186zM9.149 9.442c-.216 0-.394.177-.394.393 0 .216.173.394.394.394.216 0 .393-.178.393-.394 0-.22-.177-.393-.393-.393M5.02 12.394v-.197-1.085-.029c-.009-.125-.08-.638-.705-.667h-.177c-.644.014-.725.149-.725.149v.513s.197-.153.475-.158c.274-.005.384.038.446.096.015.014.03.034.044.053.019.043.038.077.048.134 0 0-.005.029-.01.034-.005.005-.024.005-.024.005-.005 0-.02-.005-.024-.005-.014-.01-.106-.063-.46-.048-.222.01-.471.168-.52.23-.062.072-.21.183-.21.557 0 .125.048.278.153.46.106.183.437.236.447.236.168.005.35-.005.432-.029.086-.029.168-.086.192-.105.014-.015.048-.01.048.004 0 .039.01.072.028.106.005.02.01.029.01.029h.643c-.024-.029-.043-.048-.053-.072-.01-.048-.057-.168-.057-.211m-.653-.274c-.043.038-.106.043-.389.043-.043 0-.211-.062-.211-.25 0-.345.355-.311.456-.311.096 0 .202.038.202.105 0 .053.004.211.004.283 0 .072-.033.106-.062.13M18.182 12.394v-1.282-.029c-.01-.125-.076-.638-.705-.667h-.178c-.648.014-.725.149-.725.149v.513s.197-.153.47-.158c.274-.005.385.038.452.096.014.014.029.034.043.053.02.043.039.077.048.134 0 0-.005.029-.01.034-.004.005-.023.005-.023.005-.005 0-.02-.005-.024-.005-.01-.01-.106-.063-.456-.048-.226.01-.47.168-.524.23-.062.072-.21.183-.21.557 0 .125.047.278.153.46.105.183.437.236.446.236.168.005.35-.005.432-.029.087-.029.168-.086.192-.105.015-.015.048-.01.048.004 0 .039.015.072.029.106l.014.029h.644c-.024-.029-.044-.048-.058-.072-.01-.048-.058-.168-.058-.211m-.652-.274c-.044.038-.106.043-.39.043-.042 0-.21-.062-.21-.25 0-.345.355-.311.456-.311.096 0 .201.038.201.105v.283c.005.072-.029.106-.057.13M7.723 10.411c-.345 0-.629.115-.643.264-.014-.149-.269-.264-.586-.264-.244 0-.456.072-.542.173v-.14h-.533c-.024 0-.029.01-.029.03v2.198h.586v-1.454c0-.12.14-.216.317-.216s.317.096.317.216v1.454h.6v-1.454c0-.12.139-.216.316-.216.178 0 .317.096.317.216v1.454h.61v-1.627-.005c-.029-.432-.384-.629-.73-.629M19.118 10.627v-.187h-.59v2.227h.586v-1.44c.062-.053.225-.168.412-.168.24 0 .35.091.35.091v-.648s-.138-.081-.311-.081c-.13 0-.341.12-.447.206M8.846 10.44H9.846V12.667H8.846z" transform="translate(-553.000000, -508.000000) translate(553.000000, 508.000000) translate(1.000000, 0.000000)"/>
                    <path fill="#0079C4" d="M9.888 9.485H10.888V12.667H9.888zM1.742 10.094L3.182 10.094 3.182 9.485 1.742 9.485 1.123 9.485 1.123 10.094 1.123 12.667 1.742 12.667 1.742 11.27 3.125 11.27 3.125 10.661 1.742 10.661zM21.456 11.02v-.58h-.514v-.835l-.585.269v.561h-.327v.581h.327v1.032h.005c.033.552.508.614.739.614.24 0 .331-.062.331-.062v-.552s-.053.043-.269.043c-.216 0-.216-.297-.216-.297v-.783h.509v.01zM14.573 10.46l-.792-.975h-.643v3.187h.643v-2.198s.672.859.792 1.017c.12-.153.792-1.013.792-1.017v2.198h.648V9.485h-.648l-.792.974" transform="translate(-553.000000, -508.000000) translate(553.000000, 508.000000) translate(1.000000, 0.000000)"/>
                    <path fill="#1EAA39" fill-rule="nonzero" d="M0.043 0H22.267V7.066H0.043z" transform="translate(-553.000000, -508.000000) translate(553.000000, 508.000000) translate(1.000000, 0.000000)"/>
                </g>
            </g>
        </g>
    </g>
</svg>
