<svg xmlns="http://www.w3.org/2000/svg" width="24" height="24" viewBox="0 0 24 24">
    <g fill="none" fill-rule="evenodd">
        <g fill-rule="nonzero">
            <g>
                <g>
                    <path fill="#113285" d="M9.576.4L8.361 7.532 10.305 7.532 11.521.4zM6.731.407L4.827 5.272l-.203-.735c-.375-.885-1.441-2.155-2.693-2.957L3.672 7.53l2.057-.003L8.79.405 6.731.407z" transform="translate(-501.000000, -408.000000) translate(501.000000, 408.000000) translate(0.000000, 8.000000)"/>
                    <path fill="#FFB11B" d="M3.886.918c-.113-.435-.44-.564-.847-.58H.025L0 .48c2.345.57 3.897 1.94 4.542 3.589L3.885.918z" transform="translate(-501.000000, -408.000000) translate(501.000000, 408.000000) translate(0.000000, 8.000000)"/>
                    <path fill="#113285" d="M15.461 1.767c.636-.01 1.097.129 1.455.273l.176.083.263-1.547c-.385-.144-.989-.299-1.742-.299-1.92 0-3.274.967-3.285 2.354-.012 1.025.965 1.597 1.703 1.938.757.35 1.011.572 1.008.885-.006.478-.604.697-1.163.697-.778 0-1.192-.108-1.83-.374l-.251-.114-.274 1.596c.455.2 1.295.371 2.166.38 2.044 0 3.372-.955 3.386-2.437.008-.81-.51-1.429-1.633-1.937-.68-.33-1.096-.55-1.092-.885 0-.296.352-.613 1.113-.613zM22.344.407h-1.502c-.466 0-.813.128-1.018.593l-2.887 6.537h2.041s.333-.88.409-1.072l2.49.003c.058.249.236 1.069.236 1.069h1.804L22.344.407zm-2.398 4.598l.775-1.994c-.01.02.159-.412.259-.68l.131.615.45 2.059h-1.614z" transform="translate(-501.000000, -408.000000) translate(501.000000, 408.000000) translate(0.000000, 8.000000)"/>
                </g>
            </g>
        </g>
    </g>
</svg>
