<svg xmlns="http://www.w3.org/2000/svg" width="30" height="31" viewBox="0 0 30 31">
    <defs>
        <filter id="xgo2322ola">
            <feColorMatrix in="SourceGraphic" values="0 0 0 0 0.509804 0 0 0 0 0.509804 0 0 0 0 0.509804 0 0 0 1.000000 0"/>
        </filter>
    </defs>
    <g fill="none" fill-rule="evenodd">
        <g>
            <g>
                <g  transform="translate(-1158 -343) translate(878 301) translate(0 36)">
                    <g fill="#828282" fill-rule="nonzero">
                        <path d="M21.84 1.226h-8.03C13.101.67 12.213.34 11.25.34s-1.852.33-2.56.886H.66c-.365 0-.66.297-.66.665V20.5c0 .366.295.664.66.664h21.18c.365 0 .66-.298.66-.665V1.89c0-.367-.295-.664-.66-.664zm-7.81 2.658H8.47C8.77 2.616 9.902 1.67 11.25 1.67c1.348 0 2.481.947 2.78 2.215zM1.318 2.555h6.256c-.218.408-.372.856-.447 1.33h-.491c-.364 0-.66.297-.66.664 0 .367.296.665.66.665h9.228c.364 0 .66-.298.66-.665 0-.367-.296-.665-.66-.665h-.491c-.075-.473-.229-.921-.447-1.329h6.256v3.988H1.318V2.555zm19.864 17.28H1.318V7.872h19.864v11.963z" transform="translate(280 6.86) translate(3.75 3.675)"/>
                        <path d="M7.344 0C6.8 0 6.304.167 5.865.496c-.42.316-.7.719-.865 1.011-.165-.293-.445-.695-.865-1.01C3.696.166 3.199 0 2.656 0 1.142 0 0 1.203 0 2.799 0 4.522 1.425 5.7 3.581 7.487c.367.303.56.47.992.836.056.048.298.252.427.252.13 0 .365-.204.422-.252.431-.367.63-.533.997-.837C8.575 5.701 10 4.522 10 2.8 10 1.203 8.858 0 7.344 0z" transform="translate(280 6.86) translate(10 13.475)"/>
                    </g>
                </g>
            </g>
        </g>
    </g>
</svg>
