<svg xmlns="http://www.w3.org/2000/svg" width="45" height="45" viewBox="0 0 45 45">
    <defs>
        <filter id="afamufoc4a">
            <feColorMatrix in="SourceGraphic" values="0 0 0 0 1.000000 0 0 0 0 0.419608 0 0 0 0 0.000000 0 0 0 1.000000 0"/>
        </filter>
    </defs>
    <g fill="none" fill-rule="evenodd">
        <g>
            <g>
                <g>
                    <g filter="url(#afamufoc4a)" transform="translate(-440.000000, -162.000000) translate(317.000000, 162.000000) translate(100.000000, 0.000000) translate(23.000000, 0.000000)">
                        <g fill="#2F2F2F">
                            <path d="M25.256 27.71l-1.425-.391-1.593-.461-1.107-.303 1.107-3.527 1.593-5.127 2.81-9.043 2.065.577 2.063.58-5.513 17.695zm-1.425 3.17c-.694 1.103-1.631 2.082-2.737 2.848-.132-.354-.263-.712-.338-1.068-.393-1.496-.45-3.045-.112-4.556l1.594.445 1.593.445.881.247c-.243.572-.524 1.122-.88 1.638zM2.717 32.66c-.617 0-1.123-.48-1.123-1.067V7.913c0-.586.506-1.068 1.123-1.068h18.396c.618 0 1.125.482 1.125 1.068v9.74l-2.625 8.473-.057-.016-.225.73c-.075.231-.112.479-.168.692v.036l-.04.107c-.186.836-.28 1.673-.28 2.528 0 .819.095 1.656.28 2.457H2.717zM30.482 1.876c.06-.19.208-.278.292-.315.087-.036.267-.088.475.003.244.109.365.386.283.652l-.146.47c-.173-.064-.35-.121-.525-.171-.177-.05-.357-.091-.538-.127l.159-.512zm1.355 4.755l-.616 1.935-4.125-1.162.598-1.929c.169-.516.525-.945 1.031-1.194.506-.267 1.087-.32 1.631-.16 1.144.322 1.8 1.444 1.481 2.51zm.842-2.761l.383-1.227c.304-.977-.188-2.033-1.148-2.453-.572-.25-1.23-.255-1.8-.006-.564.244-.988.705-1.16 1.264l-.394 1.268c-.2.062-.397.135-.585.23-.883.445-1.519 1.194-1.82 2.102l-.597 1.923h-.002l-1.725 5.555V7.913c0-1.424-1.218-2.58-2.718-2.58H2.716C1.219 5.333 0 6.49 0 7.913v23.68c0 1.423 1.219 2.58 2.717 2.58h16.858c.017.053.038.107.056.162l.255.628-.551 1.77c-.124.4.116.82.538.942.077.02.152.03.227.03.345 0 .662-.213.765-.543l.55-1.766.579-.404c1.912-1.335 3.393-3.222 4.256-5.322l.075.017 6.431-20.688h-.002l.602-1.94c.356-1.146.06-2.32-.677-3.19z" transform="translate(5.625000, 3.750000)"/>
                            <path d="M32.65 9.505l1.135.388c.133.047.207.207.169.36l-2.069 8.112c-.02.078-.011.162.022.232.423.87 1.252.638 1.422-.028l2.265-8.884c.116-.46-.11-.943-.505-1.077l-2.033-.695-.406 1.592zM6.326 13.538c-.377 0-.682.306-.682.683 0 .375.305.684.682.684.377 0 .683-.309.683-.684 0-.377-.306-.683-.683-.683M6.326 18.642c-.377 0-.682.305-.682.682 0 .377.305.685.682.685.377 0 .683-.308.683-.685 0-.377-.306-.682-.683-.682M18.07 13.538H9.057c-.377 0-.682.306-.682.683 0 .377.306.684.682.684h9.013c.377 0 .683-.307.683-.684 0-.377-.306-.683-.683-.683M18.052 18.642H9.04c-.377 0-.682.305-.682.682 0 .377.305.685.682.685h9.013c.377 0 .683-.308.683-.685 0-.377-.306-.682-.683-.682M6.308 23.399c-.377 0-.683.305-.683.682 0 .375.306.683.683.683.377 0 .682-.308.682-.683 0-.377-.305-.682-.682-.682M18.052 23.399H9.04c-.377 0-.682.305-.682.682 0 .377.305.683.682.683h9.013c.377 0 .683-.306.683-.683 0-.377-.306-.682-.683-.682" transform="translate(5.625000, 3.750000)"/>
                        </g>
                    </g>
                </g>
            </g>
        </g>
    </g>
</svg>
