<svg xmlns="http://www.w3.org/2000/svg" width="36" height="35" viewBox="0 0 36 35">
    <defs>
        <filter id="iil4uh9nva">
            <feColorMatrix in="SourceGraphic" values="0 0 0 0 0.835294 0 0 0 0 0.835294 0 0 0 0 0.835294 0 0 0 1.000000 0"/>
        </filter>
    </defs>
    <g fill="none" fill-rule="evenodd">
        <g>
            <g>
                <g>
                    <g filter="url(#iil4uh9nva)" transform="translate(-615.000000, -172.000000) translate(488.000000, 162.000000) translate(100.000000, 10.000000) translate(28.000000, 0.000000)">
                        <g fill="#2F2F2F">
                            <path d="M19.644 21.552l-1.109-.304-1.24-.359-.86-.235.86-2.743 1.24-3.988 2.186-7.033 1.606.448 1.604.452-4.287 13.762zm-1.109 2.465c-.54.859-1.268 1.62-2.129 2.216-.102-.276-.204-.554-.262-.831-.306-1.163-.35-2.368-.088-3.544l1.24.347 1.24.346.685.192c-.19.445-.409.873-.686 1.274zM2.113 25.402c-.48 0-.873-.372-.873-.83V6.155c0-.455.393-.83.873-.83h14.308c.481 0 .875.375.875.83v7.576l-2.042 6.59-.044-.012-.175.567c-.058.18-.087.373-.13.539v.028l-.031.083c-.145.65-.218 1.301-.218 1.966 0 .637.073 1.288.218 1.911H2.114zM23.708 1.459c.047-.147.162-.216.228-.245.067-.028.207-.068.369.002.19.085.284.301.22.507l-.114.366c-.134-.05-.271-.094-.408-.133-.137-.039-.277-.07-.419-.098l.124-.4zm1.055 3.698l-.48 1.506-3.209-.905.466-1.5c.13-.4.408-.735.802-.928.393-.208.846-.25 1.268-.125.89.25 1.4 1.123 1.152 1.952zm.654-2.147l.298-.954c.236-.76-.146-1.582-.893-1.909-.444-.193-.956-.198-1.4-.004-.439.19-.768.549-.902.983l-.307.986c-.156.049-.309.106-.455.179-.687.346-1.18.93-1.416 1.635l-.463 1.496h-.002l-1.342 4.32V6.154c0-1.107-.948-2.006-2.114-2.006H2.113C.948 4.148 0 5.047 0 6.154v18.419c0 1.106.948 2.006 2.113 2.006h13.112c.013.042.03.083.044.126l.198.489-.429 1.376c-.096.312.09.639.419.733.06.015.118.023.176.023.269 0 .515-.166.595-.422l.428-1.374.45-.314c1.488-1.039 2.64-2.506 3.31-4.139l.059.013L25.477 7h-.001l.468-1.51c.277-.89.046-1.805-.527-2.48z" transform="translate(4.375000, 2.916667)"/>
                            <path d="M25.395 7.393l.882.302c.104.036.162.16.131.279l-1.608 6.31c-.016.06-.01.126.017.18.329.677.973.496 1.105-.021l1.762-6.91c.09-.359-.085-.734-.393-.838l-1.58-.54-.316 1.238zM4.92 10.53c-.293 0-.53.238-.53.53 0 .292.237.533.53.533.294 0 .531-.24.531-.532 0-.293-.237-.531-.53-.531M4.92 14.5c-.293 0-.53.237-.53.53 0 .293.237.532.53.532.294 0 .531-.239.531-.532 0-.293-.237-.53-.53-.53M14.055 10.53h-7.01c-.293 0-.531.238-.531.53 0 .294.237.533.53.533h7.01c.294 0 .532-.24.532-.532 0-.293-.238-.531-.531-.531M14.04 14.5H7.03c-.293 0-.53.237-.53.53 0 .293.237.532.53.532h7.01c.294 0 .532-.239.532-.532 0-.293-.238-.53-.531-.53M4.906 18.199c-.293 0-.53.238-.53.53 0 .293.237.532.53.532.293 0 .531-.24.531-.531 0-.293-.238-.531-.53-.531M14.04 18.199H7.03c-.293 0-.53.238-.53.53 0 .294.237.532.53.532h7.01c.294 0 .532-.238.532-.531 0-.293-.238-.531-.531-.531" transform="translate(4.375000, 2.916667)"/>
                        </g>
                    </g>
                </g>
            </g>
        </g>
    </g>
</svg>
