<svg xmlns="http://www.w3.org/2000/svg" xmlns:xlink="http://www.w3.org/1999/xlink" width="36" height="35" viewBox="0 0 36 35">
    <defs>
        <filter id="ggrsyid3la">
            <feColorMatrix in="SourceGraphic" values="0 0 0 0 0.835294 0 0 0 0 0.835294 0 0 0 0 0.835294 0 0 0 1.000000 0"/>
        </filter>
        <path id="oowp4g25yb" d="M0.959 0.091L22.906 0.091 22.906 21.874 0.959 21.874z"/>
    </defs>
    <g fill="none" fill-rule="evenodd">
        <g>
            <g>
                <g>
                    <g filter="url(#ggrsyid3la)" transform="translate(-815.000000, -172.000000) translate(488.000000, 162.000000) translate(300.000000, 10.000000) translate(28.000000, 0.000000)">
                        <g>
                            <path fill="#2F2F2F" fill-rule="nonzero" d="M7.771.886c-.81.071-1.427.494-1.886 1.15l-.053.076-.05-.077C5.276 1.315 4.58.875 3.645.875 2.055.875.875 2.15.875 3.741c0 .733.26 1.394.77 2.057.322.42.74.839 1.336 1.357l1.133.941L5.46 9.198l.373.311 2.585-2.125c.743-.628 1.235-1.106 1.605-1.586.51-.663.769-1.324.769-2.057 0-1.591-1.18-2.866-2.772-2.866l-.249.01zm.25 1.156c.925 0 1.604.733 1.604 1.699 0 .454-.165.875-.527 1.346-.27.35-.64.72-1.187 1.196l-.352.299-1.727 1.411-1.83-1.5c-.685-.579-1.126-1.007-1.433-1.406-.363-.471-.527-.892-.527-1.346 0-.966.678-1.7 1.603-1.7.513 0 .877.23 1.181.664l.02.05.094.18.152.254c.205.319.492.676.741.676.25 0 .537-.357.741-.676l.152-.254.095-.18c.02-.042.027-.061.02-.05.303-.434.667-.663 1.18-.663z" transform="translate(4.375000, 2.916667)"/>
                            <g transform="translate(4.375000, 2.916667) translate(4.375000, 5.833333)">
                                <mask id="wo3yzro0tc" fill="#fff">
                                    <use xlink:href="#oowp4g25yb"/>
                                </mask>
                                <path fill="#2F2F2F" d="M15.66 19.893c-.272.812-.83.849-1.192.078l-1.802-3.757-.687-1.417-.505-1.042c-.156-.327-.415-.67-.706-1.001l10.779-10.55c-.014.096-.016.185-.053.292L15.66 19.893zM6.665 17.23c-.09.025-.168.052-.259.063-.246.053-.544.065-.739-.205-.142-.192-.155-.514-.026-.874l1.672-4.195 1.258.605c.596.27 1.426 1.106 1.71 1.698l.584 1.221-4.2 1.687zM2.88 8.466c-.402-.191-.61-.41-.596-.629.013-.219.259-.425.66-.555l17.424-5.768L9.812 11.845c-.227-.17-.455-.312-.672-.418l-1.05-.49-1.439-.68-3.772-1.79zM22.544.863c-.506-.71-1.452-.965-2.489-.62L2.529 6.035C1.181 6.484.986 7.385.961 7.76c-.013.361.064 1.286 1.348 1.891l3.837 1.814-1.763 4.337c-.26.773-.182 1.505.207 2.06.363.489.946.772 1.595.772.155 0 .298-.013.453-.04.143-.024.286-.064.519-.14l4.278-1.726 1.84 3.81c.584 1.197 1.452 1.337 1.802 1.337.311 0 1.348-.115 1.841-1.557l5.833-17.395c.26-.787.195-1.506-.207-2.06z" mask="url(#wo3yzro0tc)"/>
                            </g>
                        </g>
                    </g>
                </g>
            </g>
        </g>
    </g>
</svg>
