<svg xmlns="http://www.w3.org/2000/svg" width="36" height="35" viewBox="0 0 36 35">
<defs>
        <filter id="vbpfsowfpa">
            <feColorMatrix in="SourceGraphic" values="0 0 0 0 0.835294 0 0 0 0 0.835294 0 0 0 0 0.835294 0 0 0 1.000000 0"/>
        </filter>
    </defs>
    <g fill="none" fill-rule="evenodd">
        <g>
            <g>
                <g>
                    <g filter="url(#vbpfsowfpa)" transform="translate(-715.000000, -172.000000) translate(488.000000, 162.000000) translate(200.000000, 10.000000) translate(28.000000, 0.000000)">
                        <g>
                            <path fill="#000" d="M19.017 16.15c-.035.206-.059.409-.059.629 0 .203.024.407.047.612h1.365c.023-.205.047-.41.047-.612 0-.22-.024-.423-.047-.629h-1.353z" transform="translate(2.916667, 4.375000)"/>
                            <path fill="#2F2F2F" d="M26.125 24.636c0 .275-.225.498-.502.498H5.133c-.278 0-.502-.223-.502-.498V11.97c0-.276.224-.499.501-.499h20.491c.277 0 .502.223.502.499v12.666zM1.623 15.632c-.278 0-.502-.223-.502-.499V8.295h21.494v2.06H5.132c-.897 0-1.623.723-1.623 1.615v3.662H1.623zM1.12 7.18h21.494V5.13H1.12v2.05zm0-4.727c0-.262.224-.498.502-.498h20.49c.278 0 .502.236.502.498v1.562H1.12V2.454zm24.502 7.902h-1.887V2.454c0-.879-.725-1.6-1.623-1.6H1.623C.725.853 0 1.574 0 2.453V15.133c0 .893.725 1.614 1.623 1.614h1.886v7.889c0 .892.726 1.614 1.623 1.614h20.491c.897 0 1.623-.722 1.623-1.614V11.97c0-.893-.726-1.614-1.623-1.614z" transform="translate(2.916667, 4.375000)"/>
                            <path fill="#2F2F2F" d="M15.313 19.1c-.324 0-.587.263-.587.587 0 .324.263.587.586.587.324 0 .587-.263.587-.587 0-.324-.263-.586-.586-.586M9.723 22.017H7.779c-.27 0-.487.263-.487.586 0 .326.217.588.487.588h1.944c.268 0 .485-.262.485-.588 0-.323-.217-.586-.485-.586M14.098 22.017h-1.944c-.27 0-.487.263-.487.586 0 .326.217.588.487.588h1.944c.27 0 .485-.262.485-.588 0-.323-.216-.586-.485-.586M18.473 22.017h-1.944c-.27 0-.487.263-.487.586 0 .326.217.588.487.588h1.944c.268 0 .485-.262.485-.588 0-.323-.217-.586-.485-.586M22.848 22.017h-1.944c-.27 0-.487.263-.487.586 0 .326.217.588.487.588h1.944c.268 0 .485-.262.485-.588 0-.323-.217-.586-.485-.586M7.875 20.274h4.667c.322 0 .583-.263.583-.586 0-.325-.261-.587-.583-.587H7.875c-.322 0-.583.262-.583.587 0 .323.26.586.583.586M23.503 16.263c-.104.832-.845 1.477-1.734 1.477-.548 0-1.052-.244-1.363-.645.06-.144.104-.287.148-.443.03-.202.06-.403.06-.602 0-.217-.03-.416-.06-.618-.044-.157-.089-.301-.148-.445.311-.401.815-.645 1.363-.645.445 0 .845.16 1.156.446.37.285.592.744.592 1.262 0 .07 0 .141-.014.213m-4.682.389c.044.156.089.3.148.443-.326.401-.815.645-1.378.645-.74 0-1.378-.459-1.63-1.088-.074-.187-.118-.389-.118-.602 0-.217.044-.432.118-.618.252-.644.89-1.09 1.63-1.09.563 0 1.052.244 1.378.645-.06.144-.104.288-.133.445-.045.202-.075.401-.075.618 0 .199.03.4.06.602m5.363-2.353c-.326-.416-.755-.745-1.26-.945-.355-.144-.74-.229-1.155-.229-.815 0-1.54.314-2.074.831-.548-.517-1.274-.831-2.104-.831-1.437 0-2.652.988-2.934 2.307-.044.202-.074.401-.074.618 0 .199.03.4.06.602.296 1.317 1.496 2.306 2.948 2.306.83 0 1.556-.315 2.104-.831.533.516 1.26.831 2.074.831 1.66 0 3.023-1.303 3.023-2.908 0-.66-.223-1.262-.608-1.75" transform="translate(2.916667, 4.375000)"/>
                        </g>
                    </g>
                </g>
            </g>
        </g>
    </g>
</svg>
