<svg xmlns="http://www.w3.org/2000/svg" width="46" height="45" viewBox="0 0 46 45">
    <defs>
        <filter id="9lw4ba5npa">
            <feColorMatrix in="SourceGraphic" values="0 0 0 0 1.000000 0 0 0 0 0.419608 0 0 0 0 0.000000 0 0 0 1.000000 0"/>
        </filter>
    </defs>
    <g fill="none" fill-rule="evenodd">
        <g>
            <g>
                <g filter="url(#9lw4ba5npa)" transform="translate(-510.000000, -162.000000) translate(488.000000, 162.000000) translate(23.000000, 0.000000)">
                    <g fill="#2F2F2F" fill-rule="nonzero">
                        <path d="M8.438 18.75c-.518 0-.938.42-.938.938 0 .517.42.937.938.937.517 0 .937-.42.937-.938 0-.517-.42-.937-.938-.937zM8.438 22.5c-.518 0-.938.42-.938.938 0 .517.42.937.938.937.517 0 .937-.42.937-.938 0-.517-.42-.937-.938-.937zM21.76 18.75h-9.77c-.409 0-.74.42-.74.938 0 .517.331.937.74.937h9.77c.409 0 .74-.42.74-.938 0-.517-.331-.937-.74-.937zM21.76 22.5h-9.77c-.409 0-.74.42-.74.938 0 .517.331.937.74.937h9.77c.409 0 .74-.42.74-.938 0-.517-.331-.937-.74-.937z" transform="translate(7.500000, 5.625000)"/>
                        <path d="M31.875 6.903V3.068C31.875 1.376 30.487 0 28.78 0H6.963C4.83 0 3.095 1.72 3.095 3.835v23.779H.774c-.428 0-.774.343-.774.767 0 2.96 2.43 5.369 5.416 5.369h17.949c2.264 0 3.868-1.912 3.868-4V7.67h3.868c.428 0 .774-.343.774-.767zM5.415 32.216c-1.867 0-3.43-1.32-3.79-3.068h17.871v.767c0 .862.29 1.66.776 2.3H5.416zm20.27-29.148v26.683c0 1.27-.928 2.465-2.32 2.465-1.28 0-2.321-1.032-2.321-2.301V28.38c0-.424-.347-.767-.774-.767H4.642V3.835c0-1.269 1.041-2.309 2.321-2.309h19.136c-.265.456-.413.99-.413 1.542zm4.643 3.068h-3.095V3.068c0-.858.703-1.534 1.547-1.534.853 0 1.548.688 1.548 1.534v3.068z" transform="translate(7.500000, 5.625000)"/>
                        <path d="M12.041 13.582c.472.386.96.786 1.48 1.222.155.13.348.196.541.196.194 0 .387-.065.543-.196.518-.436 1.006-.836 1.479-1.222 2.636-2.159 4.541-3.719 4.541-6.009 0-2.144-1.623-3.823-3.696-3.823-1.393 0-2.302.725-2.866 1.462-.565-.737-1.474-1.462-2.868-1.462C9.123 3.75 7.5 5.43 7.5 7.573c0 2.29 1.905 3.85 4.541 6.009zm-.846-8.225c1.512 0 2.048 1.75 2.07 1.825.1.345.424.582.794.584h.004c.37 0 .694-.24.797-.584.022-.074.558-1.825 2.07-1.825 1.162 0 2.038.953 2.038 2.216 0 1.544-1.488 2.762-3.953 4.78-.309.254-.625.512-.953.784-.327-.272-.643-.53-.952-.784-2.465-2.018-3.953-3.236-3.953-4.78 0-1.263.876-2.216 2.038-2.216z" transform="translate(7.500000, 5.625000)"/>
                    </g>
                </g>
            </g>
        </g>
    </g>
</svg>
