<svg xmlns="http://www.w3.org/2000/svg" width="40" height="40" viewBox="0 0 40 40">
    <defs>
        <filter id="h3gqzl26ea">
            <feColorMatrix in="SourceGraphic" values="0 0 0 0 0.674510 0 0 0 0 0.674510 0 0 0 0 0.674510 0 0 0 1.000000 0"/>
        </filter>
    </defs>
    <g fill="none" fill-rule="evenodd">
        <g>
            <g>
                <g filter="url(#h3gqzl26ea)" transform="translate(-36 -158) translate(16 148) translate(0 10)">
                    <g fill="#2F2F2F" fill-rule="nonzero">
                        <path d="M7.5 16.667c-.46 0-.833.373-.833.833 0 .46.373.833.833.833.46 0 .833-.373.833-.833 0-.46-.373-.833-.833-.833zM7.5 20c-.46 0-.833.373-.833.833 0 .46.373.834.833.834.46 0 .833-.374.833-.834 0-.46-.373-.833-.833-.833zM19.342 16.667h-8.684c-.363 0-.658.373-.658.833 0 .46.295.833.658.833h8.684c.363 0 .658-.373.658-.833 0-.46-.295-.833-.658-.833zM19.342 20h-8.684c-.363 0-.658.373-.658.833 0 .46.295.834.658.834h8.684c.363 0 .658-.373.658-.834 0-.46-.295-.833-.658-.833z" transform="translate(26.667 5)"/>
                        <path d="M28.333 6.136V2.727C28.333 1.224 27.1 0 25.583 0H6.189C4.293 0 2.751 1.53 2.751 3.41v21.135H.688c-.38 0-.688.306-.688.682C0 27.86 2.16 30 4.814 30h15.955c2.012 0 3.438-1.7 3.438-3.555V6.818h3.439c.38 0 .687-.305.687-.682zm-23.52 22.5c-1.66 0-3.05-1.173-3.369-2.727H17.33v.682c0 .767.257 1.475.69 2.045H4.813zM22.833 2.727v23.718c0 1.13-.826 2.191-2.063 2.191-1.138 0-2.063-.917-2.063-2.045v-1.364c0-.376-.308-.682-.688-.682H4.126V3.41c0-1.128.926-2.052 2.063-2.052H23.2c-.235.405-.367.879-.367 1.37zm4.126 2.728h-2.75V2.727c0-.763.624-1.363 1.375-1.363.758 0 1.375.611 1.375 1.363v2.728z" transform="translate(26.667 5)"/>
                        <path d="M10.703 12.072c.42.344.854.7 1.315 1.087.138.116.31.174.482.174s.344-.058.482-.174c.46-.387.895-.743 1.315-1.086 2.343-1.92 4.036-3.306 4.036-5.341 0-1.906-1.443-3.399-3.285-3.399-1.238 0-2.046.645-2.548 1.3-.502-.655-1.31-1.3-2.549-1.3-1.842 0-3.284 1.493-3.284 3.399 0 2.035 1.693 3.422 4.036 5.34zm-.752-7.31c1.344 0 1.82 1.556 1.84 1.622.09.307.377.517.706.52h.004c.328 0 .617-.214.708-.52.02-.066.496-1.622 1.84-1.622 1.032 0 1.812.847 1.812 1.97 0 1.372-1.323 2.455-3.514 4.249-.275.225-.556.455-.847.696-.291-.241-.572-.471-.847-.696-2.191-1.794-3.514-2.877-3.514-4.25 0-1.122.78-1.97 1.812-1.97z" transform="translate(26.667 5)"/>
                    </g>
                </g>
            </g>
        </g>
    </g>
</svg>
