<svg xmlns="http://www.w3.org/2000/svg" xmlns:xlink="http://www.w3.org/1999/xlink" width="212" height="212" viewBox="0 0 212 212">
    <defs>
        <filter id="juksdhezaa">
            <feColorMatrix in="SourceGraphic" values="0 0 0 0 1.000000 0 0 0 0 1.000000 0 0 0 0 1.000000 0 0 0 1.000000 0"/>
        </filter>
        <path id="4oj3o08nhb" d="M4.934 0.467L117.8 0.467 117.8 112.497 4.934 112.497z"/>
    </defs>
    <g fill="none" fill-rule="evenodd">
        <g>
            <g transform="translate(-278 -278) translate(278 278)">
                <circle cx="106" cy="106" r="106" fill="#FF6B00"/>
                <g filter="url(#juksdhezaa)">
                    <g>
                        <g>
                            <path fill="#2F2F2F" fill-rule="nonzero" d="M39.966 4.555c-4.168.368-7.339 2.542-9.701 5.912l-.273.393-.258-.393C27.134 6.759 23.555 4.5 18.747 4.5 10.568 4.5 4.5 11.057 4.5 19.24c0 3.767 1.334 7.171 3.955 10.578 1.663 2.161 3.808 4.313 6.878 6.98l5.824 4.839 6.923 5.668 1.92 1.6 13.293-10.93c3.822-3.23 6.352-5.687 8.252-8.157 2.62-3.407 3.955-6.811 3.955-10.579C55.5 11.055 49.43 4.5 41.247 4.5l-1.28.055zm1.28 5.945c4.763 0 8.254 3.77 8.254 8.74 0 2.335-.847 4.497-2.71 6.92-1.385 1.798-3.292 3.708-6.107 6.151l-1.81 1.538-8.88 7.259-9.413-7.716c-3.522-2.976-5.787-5.177-7.37-7.233-1.863-2.422-2.71-4.584-2.71-6.92 0-4.968 3.49-8.739 8.247-8.739 2.639 0 4.511 1.182 6.074 3.412l.101.256.485.925.782 1.308c1.052 1.639 2.53 3.477 3.811 3.477 1.28 0 2.76-1.839 3.811-3.478l.782-1.308.485-.925c.102-.213.14-.314.1-.256 1.563-2.23 3.433-3.411 6.069-3.411z" transform="translate(16 24) translate(22.5 15)"/>
                            <g transform="translate(16 24) translate(22.5 15) translate(22.5 30)">
                                <mask id="1jo8b4jccc" fill="#fff">
                                    <use xlink:href="#4oj3o08nhb"/>
                                </mask>
                                <path fill="#2F2F2F" d="M80.54 102.306c-1.4 4.175-4.267 4.367-6.133.403L65.14 83.386 61.607 76.1l-2.6-5.36c-.8-1.682-2.134-3.442-3.627-5.15l55.433-54.257c-.073.496-.08.953-.273 1.502l-30 89.47zM34.273 88.614c-.466.125-.866.264-1.333.324-1.267.271-2.8.33-3.8-1.059-.733-.986-.8-2.64-.133-4.493l8.6-21.574 6.466 3.11c3.067 1.39 7.334 5.692 8.8 8.736l3 6.28-21.6 8.676zM14.807 43.54c-2.067-.986-3.134-2.111-3.067-3.236.067-1.125 1.333-2.184 3.4-2.852l89.607-29.667L50.46 60.919c-1.167-.874-2.34-1.608-3.453-2.151l-5.4-2.521-7.4-3.501-19.4-9.205zM115.94 4.437c-2.6-3.646-7.467-4.963-12.8-3.183l-90.133 29.78C6.073 33.35 5.073 37.981 4.94 39.9c-.067 1.86.333 6.618 6.933 9.728l19.734 9.33-9.067 22.302c-1.333 3.978-.933 7.743 1.067 10.595 1.866 2.515 4.866 3.97 8.2 3.97.8 0 1.533-.065 2.333-.204.733-.126 1.467-.331 2.667-.722l22-8.874 9.466 19.588c3 6.161 7.467 6.883 9.267 6.883 1.6 0 6.933-.596 9.467-8.008l30-89.464c1.333-4.043 1-7.742-1.067-10.588z" mask="url(#1jo8b4jccc)"/>
                            </g>
                        </g>
                    </g>
                </g>
            </g>
        </g>
    </g>
</svg>
