<svg xmlns="http://www.w3.org/2000/svg" width="120" height="42" viewBox="0 0 120 42">
    <g fill="none" fill-rule="evenodd">
        <g fill-rule="nonzero">
            <g>
                <g>
                    <path fill="#F60" d="M79.087.133c-.037-.001-.066-.03-.067-.068 0-.017.007-.034.02-.047.012-.012.03-.019.047-.018h40.784v24.758C110.3 11.228 95.518 2.303 79.087.133" transform="translate(-360 -15) translate(360 15)"/>
                    <path fill="#FFF" d="M113.14 14.423c.276-4.074.188-6.454.885-7.101.645-.598 1.804-.76 3.787-.902-4.34-.501-4.236-.373-4.671-4.593-.436 4.22-.332 4.092-4.672 4.593 1.978.144 3.142.306 3.787.902.697.647.61 3.027.885 7.1" transform="translate(-360 -15) translate(360 15)"/>
                    <path fill="#2B2523" d="M14.702 35.765c-.39-.395-.756-.814-1.096-1.254-.248-.35-.451-.149-1.148-.602-.41-.281-.794-.598-1.148-.945l-.3-.203-.201-.147-.207-.241-.242-.343-.25-.149-.1-.15-.148-.2-.201-.051s0-.097-.248-.048c-.19.045-.375.112-.55.199l-.102.302.052.451c.141.107.275.224.399.35.2.196.4.295.6.498.118.119.218.253.298.4.105.126.158.287.149.45-.048.2-.048.35-.397.4-.682.05-1.367.05-2.048 0-.4-.05-1.15-.05-1.15-.05h-.249c-.084-.057-.14-.149-.151-.25v-.253c.208-.155.409-.32.6-.496.119-.12.254-.221.401-.302l.249-.102.148-.146c.037-.092.111-.164.203-.199.093-.033.178-.085.249-.153l.05-.147.15-.252c.06-.072.06-.177 0-.249-.101-.15 0-.101-.25-.35-.25-.247-.3-.349-.5-.4-.202-.053-.1 0-.251-.05-.164-.042-.33-.074-.496-.097h-.402c-.183.153-.336.339-.451.548-.149.3-.65 1.15-.85 1.301-.201.151-.452.451-.846.797-.395.345-.603.597-.95.902-.347.304-.701.697-1.049.997-.347.3-.749.7-.749.7l-.15.351v.546l.349.352c.102.077.222.129.35.149.18.03.365-.026.5-.15.298-.202.598-.25.749-.498.062-.132.168-.239.3-.302l.199-.149.148.052c-.007.134-.024.267-.05.4-.047.295-.047.396.15.597.196.2.5.05.6.347.14.49.225.994.252 1.503 0 .394.048.997.048 1.245 0 .248.05.45.35.45s.748.1 1.098-.2c.333-.272.727-.46 1.148-.548.302-.05.55-.153 1 0 .448.153.901.451 1.353.548.257.082.528.116.798.1.451 0 .65 0 .7-.2.13-.297.182-.623.148-.947-.05-.552.149-1.152.3-1.646s.151-.751.3-.902l.35-.35.101-.2v-.15l-.101-.347c.199.158.416.29.647.395.352.15.25.25.8.15.551-.098.748-.049.851-.3.06-.145.144-.28.248-.398 0 0-.05-.052-.351-.352m-4.444 2.147c-.1.402-.248 1.1-.248 1.1l.052.299s-1.45.051-1.748 0c-.298-.052-.152-.249-.501-.097-.35.15-.451.047-.7.047-.151.013-.305-.003-.45-.047-.147-.052-.098.097-.197-.1-.1-.196-.203-.203-.203-.352.008-.134-.008-.27-.047-.399-.026-.182-.026-.368 0-.55-.057-.14-.017-.302.099-.4.162-.172.37-.292.6-.347.298-.1.35-.2.8-.2h.696c.55 0 .852.05 1.001.05h.451l.248.15.15.196c.063.212.063.438 0 .65m1.898-1.746c-.346.054-.698.07-1.048.05-.549 0-1.149-.151-1.548-.151-.4 0-1.098.101-1.498.101-.437 0-.873.045-1.301.138-.362.08-.73.13-1.1.149-.15 0-.551-.048-.551-.048l-.4-.399s0-.203.55-.4c.286-.093.555-.228.8-.4.315.028.632.028.947 0 .428-.085.865-.118 1.301-.1.413.065.83.098 1.248.1.65 0 .798-.048.999-.048h.347c.148.057.299.106.451.147.15.053.286.139.4.25l.3.298.149.15s.101.1-.05.15M17.003 34.146l-.451.252-.05.249.151.297v.303l-.203.297s-.047.048 0 .201c.048.153 0 0 .102.199.101.198 0 .15.2.248.302.123.635.142.948.054.352-.102.902-.25 1.051-.302.149-.052.1-.05.248-.097.064-.027.13-.044.199-.052l.101-.151v-.596c-.15-.253-.052-.253-.248-.302-.196-.05-.253-.149-.401-.1-.15.05-.152 0-.298.05-.114.032-.232.049-.35.05 0 0 0 .101-.203 0-.17-.092-.336-.192-.496-.3l-.3-.3zM17.594 37.491l-.402.2-.146.3s-.05.752.1 1.05c.148.297.15.5.6.798.448.298.6.402.746.298.097-.049.183-.117.252-.2.15-.145.15-.299.248-.452.078-.127.144-.26.199-.4l.151-.2c.106-.08.191-.184.25-.302.1-.197 0-.05.152-.35.15-.3.097-.347.245-.496.15-.149.152.047.203-.203.052-.25.097-.199.05-.345-.031-.095-.083-.18-.151-.253h-.199l-.3.1-.3.252c-.044.19-.205.33-.399.347-.352.05-.498.201-.699.102-.108-.059-.227-.094-.35-.102l-.25-.144z" transform="translate(-360 -15) translate(360 15)"/>
                    <path fill="#2B2523" d="M26.64 35.346l.148-.05.1-.248s.601-.253.949-.151c.179.054.364.087.55.097l.199-.097.203-.102.097-.198s.05-.05 0-.199c-.05-.148-.05-.252-.348-.3-.295-.063-.58-.164-.85-.3-.163-.057-.316-.142-.451-.25l-.199-.302.048-.246c.143-.087.278-.189.401-.302.085-.087.187-.155.3-.199l.248-.052.151-.099.15-.451-.102-.199h-.199s-1.049 0-1.398.05c-.35.05-.848.149-.848.149l-.751-.047-.249-.05-.101-.203.151-.295v-.253s0-.097-.151-.147c-.151-.05.101 0-.248-.101-.35-.102-.4-.154-.6-.196-.094-.04-.196-.06-.298-.055-.151 0-.65.055-.65.055l-.252.097v.15l.054.15.248.196.35.252.198.25s-1.198 0-1.498-.049c-.215-.03-.434-.03-.65 0l-.198.1-.153.198-.047.253-.05.245-.199.052c-.079-.07-.163-.137-.25-.198-.198-.154-.151-.25-.35-.303-.198-.051-.15-.099-.347-.148-.196-.05-.104-.05-.553-.15-.18-.049-.362-.083-.548-.103l-.45-.047s-.402.101-.402.3v.597l.101.553c.087.185.205.353.35.496.216.17.476.275.749.302l.35-.051c.18-.046.364-.078.55-.097h.248l.2-.055.249-.35s-.05-.098.101-.245c.151-.147 0-.151.15-.151.092.003.181.04.25.104l.148.293.201.2.102.15-.052.302-.65.05H20.2l-.35.349-.096.25-.052.248-.1.352.199.15h.5c.35 0 .3.098.752-.15.276-.124.529-.293.749-.5.096-.09.18-.19.25-.3l.149-.15.198-.25.05-.2-.1-.199-.098-.151-.199-.35c-.03-.11.01-.226.1-.295.147-.094.323-.13.496-.104.252 0 .45 0 .45.151-.026.215-.026.433 0 .648.036.231.051.465.048.699 0 .151.102.701.102.701l-.549.05-.351-.05-.199.147s-.35.302-.35.451c0 .085.016.17.048.248l.101.201-.05.25-.3.253s-.2 0-.2.147c0 .146-.1-.048 0 .2s.3.35.3.497v.3s-.3.401-.451.45c-.147.036-.284.105-.4.201-.2.152-.2.249-.2.249l.151.399.196.2c.097.09.221.142.352.15.103.004.206-.013.302-.05 0 0 .048.101.15-.048l.198-.302c.242-.147.493-.28.75-.397.283-.133.591-.201.903-.2.386-.04.776-.006 1.15.096.452.152.747.152.95.402.16.164.264.374.298.6-.06.361-.307.664-.648.798-.45.152-.85.35-1.599.199-.749-.151-1.046-.199-1.195-.298-.128-.086-.248-.184-.359-.29l-.3-.05-.2.2.099.25s.203.3 1.1.802c.898.5.848.496 1.746.597.898.102 1.101.1 1.448-.101.348-.201.35-.1.65-.35.37-.312.706-.663 1.001-1.046.199-.303.199-.249.249-.903.05-.654-.05-.652 0-.803.02-.071.054-.138.099-.198l.25-.15s.3.1.352-.049c.052-.149.05.1.05-.2v-.452s.097.055 0-.146c-.049-.078-.083-.163-.102-.253V36.6l-.101-.149-.248-.101c-.227.113-.46.213-.7.3-.23.09-.447.207-.65.35l-.15.15-.249.199s.05.25-.351.3c-.402.05-.549.3-1.146.101-.357-.12-.725-.205-1.099-.252-.25-.048-.65-.1-.65-.1-.131.029-.267.029-.399 0-.113-.031-.23-.048-.347-.05l.1-.198s-.1-.15.049-.15c.149 0 0-.05.149-.05.232.03.467.03.699 0 .548-.048 1-.048 1.148-.048.149 0-.052.048.2.048.253 0 .05.05.299.05.135.002.27-.015.401-.05 0 0 .199-.048.199-.199v-.248s-.1 0 .05-.25c.09-.153.208-.288.347-.4l.3-.351s-.05-.1.101-.15m-2.346-.45l-.35-.05-.15-.402c.03-.203.08-.404.15-.597.082-.175.201-.33.35-.451l.1.6c-.002.151.015.303.05.45.033.149.05.3.049.452l-.199-.002zm1.746-.35h-.198c-.152 0-.1.05-.303.05-.203 0-.097-.152-.097-.152l-.05-.3-.051-.496.198-.404.303.25.198.154.55.548c.249.248.152.15.199.35h-.749zM43.868 33.05c-.068-.11-.119-.23-.151-.355l-.199-.099h-.65c-.301-.002-.603.015-.902.052-.25.047-.451.352-.7.402-.247.05-1.048.146-1.048.146s-.101-.548-.101-.701c0-.154.051-.598.051-.598l-.35-.496-.252-.203h-.397l-.248.101-.203.199s-.1 0-.1.2c.002.124.037.244.1.35l.35.499.05.399v.149l-.298.101s.05-.101-.152-.101h-.45s-.05.052-.152-.095c-.061-.095-.11-.198-.149-.305l-.149-.45.1-.249.05-.2s.049-.098-.1-.201c-.147-.106-.319-.173-.498-.194-.186.019-.37.051-.55.097l-.253.15-.197.147s-.052.055 0 .253c.052.199.3.848.3.848v.55l-.052.2s-.399-.05-.697-.1c-.158-.022-.311-.073-.45-.151l-.15-.15s-.051-.85-.148-1c-.097-.152-.3-.395-.3-.395l-.303-.255-.099-.15c.015-.039.013-.082-.006-.12-.019-.038-.053-.066-.093-.078-.15-.05-.048-.099-.199-.05-.153.093-.29.212-.401.353l-.05.148.104.35c.137.196.237.416.295.647.033.195.102.382.203.55l-.051.249s0 .101-.249.052c-.248-.05-.35-.052-.55-.1-.2-.047-.7-.15-.7-.15l-.398-.15-.35-.096c-.092-.044-.197-.047-.292-.01-.094.037-.169.112-.207.206-.15.35-.45.6-.55.848-.06.194-.078.399-.052.6l.253.451c-.058.065-.086.15-.076.237.01.086.055.164.125.214.249.253.249.298.452.253.203-.045.099-.102.498-.305.33-.204.682-.372 1.049-.5.498-.147.8-.199.95-.147.148.052.198-.25.198.045 0 .296-.149.654-.298 1.202-.149.548-.203.65-.203.848 0 .119-.014.236-.045.35 0 0-.352.5-.602.848s-.3.503-.3.652v.406c0 .3-.149.3.05.35.198.05 0 .097.3-.104.3-.2.65-.451.65-.451s.049.054.198 0c.149-.054-.048-.048.3-.097.347-.05 1.098-.3 1.448-.2.35.098.697.1 1.049.297.352.196.8.304 1.353.602.56.34 1.144.642 1.746.902.427.195.885.313 1.353.35.4.052.797.101 1.047-.199.347-.34.62-.75.8-1.202.249-.645.5-.997.4-1.394-.043-.308-.164-.6-.35-.85-.142-.204-.31-.388-.5-.548l-.452-.102-.15.052-.1.199.052.198s.101.151.198.3.199.5.052.652c-.11.106-.227.205-.35.298-.128.062-.261.112-.399.15-.528.09-1.065.123-1.601.098-.337-.01-.672-.06-.997-.149-.25-.1-.149-.1-.3-.151-.151-.052-.05-.05-.298-.05h-.45c-.25 0-.35.05-.5 0-.114-.04-.23-.072-.35-.097-.2-.052.2.048-.3-.052-.498-.099-.698-.15-.698-.15s.099.15-.298 0c-.241-.089-.495-.138-.751-.147l-.248-.05c.119-.494.202-.996.248-1.502.05-.695.05-.948.198-1.196.15-.248 0-.35.499-.35.27-.005.538.028.798.1.086.085.155.186.203.298.05.153.05.153 0 .401-.05.248-.099.2-.05.404-.1.164-.118.366-.049.546.1.347.05.647.3.798.17.088.366.105.548.05.154-.079.326-.114.499-.102h.5c.383.014.766-.002 1.146-.047.303-.052.501-.052.603-.203.064-.122.098-.259.099-.397l-.15-.151-.202-.097-.147-.199-.052-.153s.102-.147.199-.298c.091-.124.191-.242.3-.352 0 0 0-.248.5-.047.501.2.551.347.851.451.212.085.451.067.647-.05.25-.099.752-.699 1.05-.95.176-.14.328-.31.45-.5 0 0-.05-.05.05-.246s.102-.205.102-.352c0-.146.05-.35-.05-.496m-4.942 2.481v.4c0 .153 0 .05-.203.153-.203.104-.15.095-.15.095-.067.064-.156.101-.25.103-.15.028-.304-.03-.399-.15-.175-.232-.279-.51-.3-.8.002-.22.037-.438.102-.649l1.2.05v.798zM72.23 38.43l-.052-.2-.146-.051h-.4l-.101.203-.199.147h-.2l-.25.153-.3.2-.551.05-.248-.103-.201-.048h-.196l-.201-.05-.25-.099-.201-.103-.35-.048h-.15l-.15-.099-.196-.151s0 .101-.052-.151c-.052-.253.298-.451.298-.451l.153-.201c-.001-.053.02-.104.057-.142.037-.037.089-.058.142-.057h.198l.451.151c.21.074.429.125.65.152.156-.004.31-.04.451-.104.08-.028.165-.044.25-.048l.296-.3.2-.15.353-.2.05-.2-.05-.302-.201-.145c-.279-.064-.566-.082-.85-.054-.43.077-.863.128-1.298.151-.45 0-2.348-.047-2.348-.047v-.451c.302 0 .603-.017.903-.05.401-.052.45-.101.45-.101.111-.05.23-.084.35-.097l.102-.253v-.248l-.248-.151-.352.05h-.352v-.199l.203-.149.2-.101c.078.035.162.053.247.052.153 0 .054.05.302.05h.298c.153-.176.272-.379.35-.599.049-.252.15-.2.2-.552.05-.352.101-.598.101-.598l.048-.302.252-.296s-.103-.103.05-.302c.153-.198.248-.2.296-.35.047-.148.056.05.099-.25.037-.13.037-.269 0-.4l-.194-.398-.154-.199h-.25s-.248-.203-.347.1c-.1.302-.151.498-.55.55-.243.03-.479.097-.7.2-.059.04-.13.057-.2.048h-.35s0 .052-.298 0c-.137-.014-.272-.048-.4-.1l-.5-.051c-.251.123-.52.208-.796.25-.4.052-.65.102-.801.102h-.356c-.25 0-.3.05-.3.05s.05.098-.298-.1c-.136-.095-.29-.162-.451-.199h-.4s.35.147-.198-.051c-.208-.062-.41-.145-.6-.249h-.149l-.302.249c-.188.187-.341.407-.451.65-.131.333-.166.696-.1 1.048.1.3.052.902.152 1.3.104.356.136.729.097 1.098-.048.347-.097 1.094-.348 1.353-.282.24-.584.458-.902.65l-.4.298c-.081.071-.188.108-.297.103-.203 0 .149.097-.253 0-.178-.03-.348-.099-.496-.203l-.092-.137c0-.032.022-.081.04-.163.102-.399 0-.297.102-.498.047-.076.082-.16.101-.248l.048-.352v-.147l-.501.048-.397.302c-.24.198-.49.38-.751.548-.253.101-.524.153-.797.151-.494-.077-.97-.247-1.4-.5-.248-.2-.298-.353-.548-.452-.168-.073-.32-.175-.452-.302-.08-.05-.148-.118-.198-.199-.1-.146-.2-.302-.2-.302l-.041-.347c.184-.002.369.014.55.05.149.05.397.101.397.101l.203-.052c.004-.085.021-.17.05-.25.029-.085.062-.168.101-.248.057-.144.089-.297.095-.452 0 0-.196-.153.052-.354.139-.108.272-.224.399-.347.19-.288.357-.59.5-.902.053-.199.1-.451.15-.598.055-.109.089-.228.099-.35.001-.085-.016-.17-.05-.248-.527.106-1.062.172-1.599.199-.595 0-.902.248-1.198.099-.231-.12-.486-.188-.746-.199-.398-.054-.8-.071-1.2-.051-.75 0-1.399.15-1.75.051-.297-.072-.599-.122-.903-.15l-.149-.15c-.165.053-.318.137-.451.249-.248.2-.548.45-.548.45l-.05.2v.3s.4.148.4.398.297.7.297 1.099v1.804l.151.15h.201c.149 0 .499-.05.499-.05.058-.04.128-.056.198-.048.102-.002.203-.02.3-.052l.048.15c-.175.258-.414.466-.695.602-.402.148-1.101.548-1.45.548-.35 0-.5.15-.8 0-.181-.092-.349-.21-.498-.35l-.05-.302-.15-.147-.147-.099h-.451l-.1.147-.247.55c-.026.35-.026.701 0 1.051.035.318.247.588.548.697.399.151.95.298 1.098.102.138-.143.31-.248.5-.303.06-.046.127-.08.2-.101.119-.057.222-.143.3-.25l.399-.249.248-.099s0 .151.2 0c.201-.151.3-.248.501-.4.135-.096.289-.163.451-.198 0 0 .102-.2.203.102.085.362.066.741-.054 1.094-.124.277-.292.531-.498.753-.185.182-.44.273-.697.25-.157-.04-.286-.15-.35-.3l-.101-.25-.199-.101h-.248l-.2.248c-.082.192-.132.396-.15.604 0 .248-.101.747.05 1.045.2.299.476.54.799.699.198.101.95.302 1.247.248.493-.139.954-.376 1.353-.697.258-.336.429-.73.499-1.148.05-.3.2-1.353 0-1.949-.201-.595-.348-.997-.348-.997l-.099-.198.048-.25.252-.303c.01-.085.026-.169.05-.25.014-.09.047-.175.097-.25l.352-.147s-.052-.05.149-.05h.3l.3.196.148.156.1.295s0 1.15-.048 2.202c-.047 1.051-.15 1.845-.101 2.343.05.499-.05.849.05 1.248.093.267.292.483.55.6.135-.082.24-.205.298-.352.03-.13.047-.262.05-.395l.2-.35.1-.25s-.1-3.097-.053-3.496c.003-.177.055-.35.151-.499l.152-.051s.748.302.999.699c.25.397.997.902 1.098 1.049.144.21.403.309.65.248.248-.1.4-.248.548-.248h.05c.048-.022.098-.04.149-.057.184-.063.343-.186.45-.35l.201-.146h.249s.2.598.148.844c-.05.247-.084.497-.099.749.053.196.137.382.248.552 0 0-.097.199.305.352.401.153.345.047.598 0 .252-.047.297.047.45-.203.154-.25.102-.302.3-.451.36-.248.639-.596.801-1.002.3-.65.35-.843.799-1.096.343-.22.74-.341 1.148-.35.268-.02.534-.054.799-.1.077.26.128.528.15.8.05.5.249.55.147.902-.072.305-.258.572-.519.747-.194.082-.395.148-.6.198l-.297.048-.253.103-.298.05c.026.182.043.365.05.548 0 .199.198.697.198.902.004.152.02.303.05.451 0 0 0-.047.199 0 .132.034.267.052.403.055.14-.012.268-.086.348-.201.13-.154.282-.29.45-.402l.197-.149c.115-.015.212-.092.253-.2.099-.199.149-.199.149-.199.399-.15.699-.25.699-.25l.2-.15h.147s.15-.1.553 0c.404.102.451.202.697.15.173-.027.341-.077.5-.15.128-.044.246-.112.348-.2.066-.044.103-.12.1-.198 0-.154.049-.201.049-.201l-.097-.151-.15-.147c-.168-.094-.356-.146-.55-.15-.297 0-.902.049-.902.049l-.25-.1c-.216-.02-.405-.155-.496-.351-.123-.032-.22-.128-.253-.25-.044-.148-.077-.3-.1-.452-.049-.3-.1-.65-.1-.65l-.05-.25.101-.3 1.047-.05h.598c.151 0 .303.017.45.05l.104.151s-.103.451-.351.548c-.249.097-.65.25-.65.25l-.248.1-.15.151-.098.149v.2s-.052.152.146.201c.133.031.268.048.404.05l.144-.05.152-.103c.122-.075.24-.157.351-.246h.348s.101-.2.203.05c.101.25.298.399.45.647.154.248.346.298.745.697.4.4.7.753 1 .852.244.073.498.107.753.1.147 0 .248.05.397-.1l.05-.25.295-.097.102-.153.101-.15.149-.098.151-.25s-.101-.1.097-.152c.15-.027.302-.027.451 0l.2-.352.15-.295.052-.15-.04-.198zM50.71 33.937c-.15.026-.302.026-.451 0-.149-.042-.3-.076-.451-.103l-.4-.147-.15-.2-.15-.251h1.45c.091.006.17.065.2.151.049.147.1.347.1.347l-.148.203zm.043-1.457l-.25.1-.249-.052-.203-.194v-.152l.203-.203.452-.047.2.097.097.2-.25.251zm1.448-.45l.2-.05.2.153.15.2h-.3l-.148.095h-.253l-.102-.246.253-.153zm1.049 1.65l-.2.25-.15.048-.149.052-.2.047c-.118-.003-.235-.02-.35-.047-.198-.052-.151.047-.151.047l-.248-.047c-.115-.15-.2-.321-.25-.503.014-.137.048-.272.1-.4h.398c.253.035.504.085.751.152.347.101.548.149.548.149l-.1.252zm10.883.902l-.097.201-.35-.05-.25-.099-.3-.099-.35.047-.049.25v.303c-.008.07.01.14.05.196l.399.104c.115-.032.237-.032.352 0 .102.022.2.054.295.097.052.206.017.423-.097.602l-.3.199-1.448-.05s-.2-.101-.149-.6c.052-.498.15-.997.15-.997v-.25s-.05-.151.247-.3c.298-.149.199-.248.451-.248.253 0 .201.05.452.05.25 0 .148.047.401.047s.199-.048.345 0c.074.02.143.053.203.099l.048.2-.003.298zm0-1.247c-.303-.009-.604-.042-.902-.1-.144-.049-.047-.1-.395-.1h-.49c-.106-.007-.21-.04-.301-.098-.067-.044-.104-.12-.1-.2.007-.135.024-.27.05-.402 0 0-.05-.198.352-.295.36-.08.728-.115 1.096-.104.265.035.532.052.799.052.699 0 .55.052 1.098 0 .299-.052.6-.086.902-.102.4 0 .85.05.85.05h.398l.106.304v.75l-.15.24s-.015-.017-.202.057c-.253.1-.602.047-1.153 0-.398-.038-.798-.056-1.198-.052-.248.028-.5.028-.748 0m1.748 2.646c-.097.153-.197.153-.197.153l-.902.048-.15-.298v-.302h1.246v.203s.102.047 0 .196m.553-1.647l-.203.248-.248.152-.4.05-.496-.05-.205-.048.052-.602h1.5v.25zM57.05 38.287c-.016 0 0 0 0 0M75.025 31.62s-.15-.201.5-.201 1.354.052 1.354.052l.55.05h.348l.2.2.1.25-.15.199-.15.097c-.15.101-.05.052-.201.101-.13.037-.263.055-.397.055h-.2c-.2.097-.303.144-.452.097-.149-.048-.4-.152-.4-.152-.084-.069-.19-.105-.3-.101-.2 0-.047.101-.3 0-.107-.032-.208-.083-.3-.149-.117-.14-.188-.315-.2-.498" transform="translate(-360 -15) translate(360 15)"/>
                    <path fill="#2B2523" d="M85.31 31.721c-.197.025-.397.025-.595 0-.064-.026-.132-.044-.2-.052l-.298-.1-.452-.198c-.084-.008-.167-.025-.248-.05h-.15l-.2-.351-.103-.199-.2-.099-.299.048-.198.101-.156.149-.246.401-.198.15c-.172.07-.339.153-.499.247-.266.174-.593.228-.902.15-.3-.1-.203-.1-.203-.1l-.347-.097-.4-.052-.148.203v.158l.094.2.206.15.198.198c.079.074.163.142.253.203.196.147.144.1.144.1l.203.101.196.248c.12.08.222.182.303.3l.047.199c.058.144.092.296.102.45 0 .2-.048.1-.25.15-.204.05-.102.099-.249.148-.231.046-.464.08-.7.1-.3.05-.098 0-.398 0h-.35c-.25 0-.25.099-.55.2-.3.102-.303 0-.95.052-.313.05-.632.05-.945 0-.254-.041-.494-.144-.7-.3-.148-.101-.1-.15-.148-.3-.048-.149.097-.05.297-.103.201-.055.097-.147.402-.197.304-.05.194 0 .347-.05.131-.04.265-.073.4-.099.08-.04.162-.074.248-.101.177-.056.365-.073.55-.05.4 0 .85.05.85.05l.199-.1.295-.1.255-.202.048-.198-.15-.199h-.342c-.267 0-.534.015-.799.048-.28.048-.564.066-.848.054h-.852c-.499 0-1.595.047-1.595.047s-.052 0-.298-.248l-.45-.101-.7-.048-.302.296-.097.15.148.35.05.152.2.149.348.099.196.15h.404l.2.048.05.154.048.198v.451c0 .246.05.15.05.15l-.05.295.05.153h.748c.35 0 .152 0 .499.102.347.101.253-.052.253-.052h.699c.3 0 .647.099.947.052.3-.048.902.097.75-.102-.154-.198.098 0 .25-.052.15-.052.148-.101.148-.101h.451l.25.153.249.149h.451l.35-.1c.117-.002.228-.057.3-.15.099-.15.248-.1.45-.298.204-.199.452-.151.752-.25.3-.1.35-.201.35-.201l.302-.199.595-.498.199-.151h.2l.249-.25.45-.551.098-.2s.3-.398.397-.547c.097-.149 0-.45 0-.45m-2.892 1.804l-.05.148h-.55l-.198-.05-.102-.2.047-.248.352-.199.201.199.3.2v.15zm1.038-1.054c-.109.053-.226.086-.345.097-.12.006-.24.024-.357.054l.054-.198.194-.156.054-.196.25-.052.35.2-.2.251zM76.173 35.917l-.347.198-.249.199-.148.198.05.451s.195.246.347.246c.149-.024.301-.024.45 0 .191.072.398.09.598.052.248-.039.499-.056.75-.052.117-.005.234-.02.349-.047.598-.102.347 0 .598-.151.115-.085.26-.121.401-.102h.15v.253l-.1.297s-.102.152-.6.201c-.499.05-1.297.151-1.297.151h-.75l-.35.05s-.15.047-.098.248c.052.2.097.149.451.149s.499-.1 1.297-.1h1.248s.051-.049.2.201c.085.174.085.377 0 .55l-.6.2s-.05-.098-.347-.098h-.402c-.2 0-.997.199-1.448.248-.45.05-.198.097-.65.048-.164-.032-.33-.047-.498-.048-.196-.021-.384-.09-.548-.2l-.298-.1-.352-.101s-.099 0-.099.153c0 .154.048.747.048.945-.006.168-.022.335-.048.501l.201.598s.05.2.196.253c.112.042.233.058.352.047.2 0 0 0 .451-.246s.997-.704 1.399-.803c.401-.1.548 0 1.353-.149.805-.149 1.353-.3 1.353-.3s-.099-.1.197 0c.295.1.106.1.354.149.18.052.364.086.55.102.451.05.248-.102.85.099.516.193 1.052.327 1.598.399.496.05 1.048.25 1.195.25.147 0 .697.1.697.1s-.144-.05.253.099c.397.149.55.2.55.2.08.14.248.203.4.15.166-.07.32-.17.45-.296l.052-.352c.212-.131.397-.3.546-.5.092-.151.145-.323.154-.5l-.052-.25-.102-.297-.149-.05h-.248c-.297.07-.598.118-.902.147-.28.035-.563.051-.846.05-.37.01-.739-.023-1.1-.098-.378-.083-.76-.133-1.147-.15-.55-.05-.95-.05-1.098-.05-.149 0-.41-.036-.566-.036-.138-.014-.274-.048-.402-.102l.1-.401s.047-.199.602-.15c.347.038.695.056 1.044.053.166.023.335.023.5 0 .3-.052.2 0 .4-.052.082-.025.166-.041.25-.05l.249-.151.101-.2-.146-.2h-.35l-.203.053-.548.097c-.225-.094-.46-.16-.702-.199-.154-.009-.307-.042-.45-.1l-.402-.15-.203-.1c-.113-.015-.208-.091-.246-.198-.062-.124-.097-.26-.102-.4.632-.028 1.265-.011 1.895.05.465.06.932.092 1.4.097l.3-.097c.098-.043.2-.077.303-.101.082-.024.166-.04.25-.05l.298-.05v-.65l-.2-.148-.452.102s-1.353.198-1.497.198c-.145 0-.35-.047-.799-.047-.449 0-.352.047-1.195.047-.844 0-2.349.052-3.1 0-.456-.029-.908-.095-1.353-.198M101.443 32.287l-.05-.2-.15-.102h-1.496c-.237.034-.472.085-.702.151-.267.004-.534-.012-.798-.05-.138-.083-.292-.133-.452-.148-.35-.052-.047 0-.498-.052s-.253.052-.553-.097c-.3-.15-.65-.303-.65-.303l-.295-.047c-.219-.056-.424-.158-.6-.3-.198-.203-.5-.451-.5-.451l-.25-.05h-.197c-.103-.026-.213-.008-.302.05-.201.1-.248.2-.4.248-.105.04-.205.09-.3.151-.141.086-.293.154-.45.203-.11.022-.212.073-.294.15l-.203.146c-.3.15-.647.3-.647.3l-.201.15s.149-.051-.149.1c-.145.078-.296.144-.451.199-.096.122-.241.196-.397.203h-.404l-.451-.05s.1 0-.198-.102c-.113-.044-.23-.077-.348-.099l-.185-.257-.45.1-.2.3-.096.15-.203.546.054.451.099.352-.153.147v.35c.218-.026.44-.008.651.051.29.126.559.294.799.499.191.157.374.324.548.5l.3.251c.08.156.132.326.151.5.012.17.046.336.1.497 0 0-.1.248.248.248h.633c.15 0 .102-.047.352 0 .098.024.198.041.298.052l.102.151-.048.199h-.352l-.15.101-.1.248.2.298c.07.157.104.327.102.499.006.302.038.604.095.902.054.248.104.5.104.5l-.05.4-.302.548c-.04 0-.079.015-.107.044-.028.028-.043.067-.042.107v.199l.302.15c.215.153.506.132.697-.049.4-.3.4-.451.751-.498.352-.048.598-.249.945-.201.348.047.499-.048.903.1.224.08.44.18.647.3.05.11.14.2.25.25.201.099.05.05.303.099.128.038.262.055.397.05h.252c.248-.35.352-.201.298-.551-.07-.341-.17-.676-.298-1-.073-.202-.157-.401-.252-.595l-.045-.3v-.352c.015-.159.064-.312.144-.45l.153-.202s.1.104.147-.148c.027-.115.045-.23.052-.348l-.151-.15-.201-.15c-.026-.123.038-.248.153-.3.209-.078.426-.129.648-.15l.097-.299.203-.297c.073-.208.193-.396.35-.55.139-.104.29-.19.45-.256.153-.134.32-.251.499-.347.352-.196.604-.35.604-.35l.249-.347.2-.203c.233-.102.451-.235.648-.397.2-.2.25-.451.399-.553.149-.101.253-.047.253-.397.012-.152-.005-.305-.052-.45m-9.591 3.744c-.15.026-.302.026-.451 0-.15-.048-.097 0-.246-.048-.15-.047-.25-.101-.25-.101l-.147-.35.146-.25c.156-.003.31-.037.451-.102.11-.057.23-.091.352-.1l.147.25-.002.7zm.252-1.805c-.17.036-.338.086-.5.149 0 0 .051.047-.15.047h-.297c-.085-.008-.169-.024-.25-.047-.13-.04-.238-.13-.303-.248l-.146-.151s-.15-.15.248-.25c.397-.102.548-.152.548-.152l.3-.1c.063.091.15.161.253.202.196.099.148 0 .297.099.095.062.196.113.303.151l.099.147c-.125.073-.26.125-.402.153m.695-1.748l.307-.2s.194-.05.498-.152c.204-.078.39-.196.546-.347l.255.097.296.15c.162.08.314.18.45.299.15.153.201.153.201.153.102.112.172.249.203.397l-.351.052h-.35c-.185-.003-.369.013-.55.047-.35.052-1.248.052-1.248.052l-.352-.198.095-.35zm-.147 2.842l-.05-.248 1.354-.1v.15l.048.198.051.203-.051.298c-.08.04-.163.073-.249.099-.349.027-.7.027-1.048 0v-.25l-.055-.35zm2.45 2.752l.153.196s.143 0-.106.151c-.103.076-.223.127-.35.15 0 0-.545.049-.8.049h-.747l-.35-.05-.103-.248s.054-.1.307-.151c.224-.084.458-.135.697-.151h.749c.184.004.368.022.55.054m-.401-2.2v-.951l.597-.045-.043.45-.054.204-.252.35-.248-.007zm-.95 1.3v-.35h.6l.054.248-.654.102zm1.85 2.244v.248c0 .201-.15.154-.15.154h-.45c-.353.009-.704.042-1.052.099-.651.1-.845-.052-.845-.052l-.355-.097.102-.25.1-.151c.148-.029.299-.046.45-.05h1.354c.352 0 .399.05.647.05s.203.05.203.05m.6-2.148h-.4l-.153-.248h.65l-.097.248zm.35-1.545l-.154.097h-.196l-.151-.151-.102-.296.05-.203.052-.146.151-.15h.296l.2.398-.146.45zm.496-1.805H95.31c-.523-.003-1.043.065-1.548.201l.052-.3.197.047s.8-.047 1.353-.148c.553-.102.902-.152.902-.152h.451c.151 0 .1.05.303.102.11.024.214.076.3.151l-.262.1zM45.765 17.278v5.314c-.634.54-1.218.939-2.11.939-1.075 0-2.48-.902-2.48-3.56 0-2.857 2.223-4.917 4.59-2.693m42.956 2.646c0 2.03-.677 3.652-2.201 3.652-1.525 0-2.2-1.615-2.2-3.652s.677-3.652 2.2-3.652c1.522 0 2.201 1.615 2.201 3.652m-6.977 0c0 2.459 1.825 4.496 4.776 4.496 2.95 0 4.775-2.03 4.775-4.496 0-2.465-1.825-4.495-4.775-4.495s-4.776 2.03-4.776 4.495m-58.493 0c0 2.03-.677 3.652-2.201 3.652-1.525 0-2.202-1.615-2.202-3.652s.677-3.652 2.202-3.652c1.524 0 2.201 1.615 2.201 3.652M9.925 13.626H8.547l-2.761 7.14-2.953-8.218H0l4.38 11.754h1.334l2.833-7.258 2.81 7.258h1.335l4.379-11.73h-1.336l-3.067 8.193-2.743-7.139zm92.055 10.699V19.48c0-3.28-2.506-4.099-3.982-4.099-1.05 0-1.944.397-2.833 1.006l-.045-.022v-.844h-2.255v8.797h2.433v-7.087c.73-.632 1.428-.902 2.03-.902 1.29 0 2.18 1.242 2.18 2.6v5.385l2.472.01zm-43.121 0h1.03L65.041 12.5h-1.335l-3.58 8.312L56.59 12.5h-2.948l5.218 11.824zm-15.885.19c1.07-.002 2.107-.375 2.933-1.056l.047.024v.842h2.256V10.86h-2.445v5.364c-.81-.564-1.777-.859-2.763-.844-1.336 0-4.512.819-4.512 4.683 0 2.88 2.529 4.45 4.496 4.45m26.488-6.58c-.226 3.348 4.682 2.552 4.543 4.59-.07.817-.774 1.1-1.523 1.074-1.218-.092-1.967-.796-2.621-1.578l-.729 1.615c.922.516 1.945.824 2.998.902 2.107.14 3.889-.774 4.004-2.81.212-3.159-4.87-2.762-4.775-4.377.047-.703.841-1.053 1.66-1.008.819.045 1.502.54 2.226 1.193l.657-1.45c-.81-.355-1.673-.577-2.554-.656-2.271-.14-3.794 1.053-3.886 2.48m-2.439-6.37c-.711 0-1.289.575-1.29 1.287-.001.71.575 1.289 1.286 1.29.711.001 1.289-.575 1.29-1.286.005-.343-.129-.673-.37-.916-.243-.243-.573-.378-.916-.374m.903 3.981h-2.425v8.797h2.434l-.01-8.797zm-51.664 4.403c0 2.459 1.825 4.496 4.776 4.496 2.95 0 4.777-2.03 4.777-4.496 0-2.465-1.827-4.495-4.777-4.495s-4.776 2.03-4.776 4.495m20.856-9.063h-2.436v13.464h2.436V10.86zm-9.857 4.66v8.797h2.434v-7.157c.82-.704 1.405-.47 3.02.866l.986-2.201c-.637-.294-1.33-.448-2.03-.452-.733-.012-1.433.297-1.92.844l-.117.14-.023-.025.023-.819-2.373.007zM77.714 15.521H80.148V24.325000000000003H77.714zM79.008 11.54c-.71.002-1.284.58-1.283 1.29.001.71.577 1.286 1.288 1.286.71 0 1.287-.575 1.288-1.286.005-.343-.13-.674-.372-.917s-.573-.377-.916-.373" transform="translate(-360 -15) translate(360 15)"/>
                </g>
            </g>
        </g>
    </g>
</svg>
